<?xml version="1.0" encoding="utf-8"?>
<!-- Generator: Adobe Illustrator 16.0.4, SVG Export Plug-In . SVG Version: 6.00 Build 0)  -->
<!DOCTYPE svg PUBLIC "-//W3C//DTD SVG 1.1//EN" "http://www.w3.org/Graphics/SVG/1.1/DTD/svg11.dtd">
<svg version="1.1" id="Illus" xmlns="http://www.w3.org/2000/svg" xmlns:xlink="http://www.w3.org/1999/xlink" x="0px" y="0px"
	 width="261px" height="432.625px" viewBox="0 0 261 432.625" enable-background="new 0 0 261 432.625" xml:space="preserve">
<line fill="none" stroke="#000000" stroke-width="0.3" stroke-linecap="round" stroke-linejoin="round" x1="135.167" y1="23.166" x2="186.125" y2="23.166"/>
<line fill="none" stroke="#000000" stroke-width="0.3" stroke-linecap="round" stroke-linejoin="round" x1="134.792" y1="50.499" x2="159.125" y2="50.499"/>
<line fill="none" stroke="#000000" stroke-width="0.3" stroke-linecap="round" stroke-linejoin="round" x1="134.833" y1="183.134" x2="159.125" y2="183.134"/>
<line fill="none" stroke="#000000" stroke-width="0.3" stroke-linecap="round" stroke-linejoin="round" x1="132.5" y1="20.5" x2="132.5" y2="1.5"/>
<line fill="none" stroke="#000000" stroke-width="0.3" stroke-linecap="round" stroke-linejoin="round" x1="34.783" y1="20.375" x2="34.783" y2="1.5"/>
<g>
	<path d="M71.151,8.964c0.12,0.008,0.248,0.016,0.368,0.016c0.544,0,1.072-0.216,1.072-0.919c0-0.336-0.2-0.888-1.04-0.888
		c-1,0-1.063,0.815-1.095,1.208h-0.688c0-0.824,0.336-1.839,1.815-1.839c1.087,0,1.735,0.624,1.735,1.479
		c0,0.72-0.416,1.063-0.72,1.159v0.016c0.544,0.176,0.936,0.56,0.936,1.311c0,0.92-0.592,1.807-2.023,1.807
		c-0.416,0-0.768-0.104-1.04-0.248c-0.624-0.328-0.792-0.976-0.839-1.624h0.728c0.024,0.528,0.152,1.24,1.199,1.24
		c0.72,0,1.224-0.44,1.224-1.088c0-0.943-0.832-1.031-1.312-1.031c-0.104,0-0.216,0.008-0.32,0.008V8.964z"/>
	<path d="M77.142,8.036c-0.088-0.496-0.36-0.863-0.967-0.863c-1.104,0-1.335,1.487-1.335,2.079l0.016,0.016
		c0.176-0.304,0.567-0.688,1.335-0.688c0.688,0,1.759,0.44,1.759,1.783c0,0.576-0.152,0.991-0.536,1.407
		c-0.296,0.328-0.632,0.543-1.423,0.543c-0.432,0-1.047-0.192-1.447-0.815c-0.336-0.528-0.432-1.215-0.432-1.951
		c0-1.231,0.4-3.006,2.079-3.006c0.648,0,1.567,0.352,1.639,1.495H77.142z M76.119,11.683c0.672,0,1.104-0.528,1.104-1.288
		c0-0.496-0.264-1.183-1.135-1.183c-0.776,0-1.151,0.56-1.151,1.223C74.936,11.035,75.295,11.683,76.119,11.683z"/>
	<path d="M78.815,6.421h0.584V8.46h-0.584V6.421z M79.951,6.421h0.583V8.46h-0.583V6.421z"/>
	<path d="M84.457,7.397c-0.553,1.04-0.884,1.664-0.884,3.224c0,1.073,0.371,1.866,0.891,2.886H84.08
		c-0.676-1.014-1.118-1.827-1.118-3.042c0-1.144,0.396-2.067,1.099-3.068H84.457z"/>
	<path d="M84.958,9.159c0-0.832,0.507-1.567,1.469-1.567c1.456,0,1.599,1.378,1.599,2.119c0,0.488-0.084,2.574-1.657,2.574
		c-1.073,0-1.359-0.78-1.359-1.222h0.572c0.032,0.461,0.305,0.748,0.773,0.748c0.624,0,0.956-0.526,1.099-1.709l-0.013-0.013
		c-0.169,0.351-0.624,0.546-1.046,0.546C85.549,10.635,84.958,10.069,84.958,9.159z M87.356,9.081c0-0.52-0.267-0.975-0.923-0.975
		c-0.533,0-0.884,0.416-0.884,1.027c0,0.878,0.546,0.988,0.93,0.988C86.777,10.121,87.356,9.984,87.356,9.081z"/>
	<path d="M90.632,12.162h-0.611V8.918h-1.066V8.463c0.741-0.052,1.046-0.124,1.229-0.871h0.448V12.162z"/>
	<path d="M94.643,11.051v1.111H94.07v-1.111h-1.996v-0.559l2.093-2.899h0.475v2.964h0.669v0.494H94.643z M92.602,10.557h1.469V8.483
		h-0.013L92.602,10.557z"/>
	<path d="M95.754,13.508c0.553-1.04,0.884-1.664,0.884-3.224c0-1.073-0.37-1.866-0.89-2.886h0.383
		c0.676,1.014,1.118,1.827,1.118,3.042c0,1.144-0.396,2.067-1.099,3.068H95.754z"/>
</g>
<g>
	<path d="M162.517,95.089c0.76,0.32,0.919,0.943,0.919,1.367c0,0.903-0.576,1.775-1.903,1.775c-0.312,0-0.903-0.08-1.351-0.432
		c-0.576-0.456-0.576-1.063-0.576-1.335c0-0.688,0.36-1.127,0.951-1.367c-0.479-0.184-0.759-0.567-0.759-1.095
		c0-0.584,0.36-1.543,1.703-1.543c1.247,0,1.735,0.792,1.735,1.447C163.236,94.713,162.765,94.961,162.517,95.089z M160.358,96.48
		c0,0.448,0.224,1.12,1.199,1.12c0.512,0,1.127-0.184,1.127-1.063c0-0.76-0.528-1.096-1.167-1.096
		C160.726,95.44,160.358,95.96,160.358,96.48z M162.509,93.929c0-0.344-0.224-0.839-1.047-0.839c-0.752,0-0.936,0.52-0.936,0.879
		c0,0.536,0.472,0.864,0.983,0.864C162.117,94.833,162.509,94.441,162.509,93.929z"/>
	<path d="M167.108,96.712v1.367h-0.704v-1.367h-2.455v-0.688l2.575-3.566h0.583v3.646h0.824v0.608H167.108z M164.598,96.104h1.807
		v-2.55h-0.016L164.598,96.104z"/>
	<path d="M168.758,92.338h0.583v2.039h-0.583V92.338z M169.894,92.338h0.583v2.039h-0.583V92.338z"/>
	<path d="M157.715,100.314c-0.552,1.04-0.884,1.664-0.884,3.224c0,1.073,0.371,1.866,0.891,2.886h-0.384
		c-0.676-1.014-1.118-1.827-1.118-3.042c0-1.144,0.396-2.067,1.098-3.068H157.715z"/>
	<path d="M158.229,102.147c0-1.488,1.085-1.638,1.58-1.638c0.793,0,1.43,0.514,1.43,1.365c0,0.819-0.54,1.164-1.222,1.527
		l-0.475,0.26c-0.624,0.344-0.761,0.702-0.787,0.877h2.483v0.54h-3.127c0.033-0.949,0.461-1.456,1.073-1.813l0.604-0.351
		c0.487-0.28,0.838-0.468,0.838-1.066c0-0.364-0.234-0.826-0.903-0.826c-0.865,0-0.904,0.806-0.923,1.125H158.229z"/>
	<path d="M163.89,105.079h-0.611v-3.244h-1.066v-0.455c0.741-0.052,1.046-0.124,1.229-0.871h0.449V105.079z"/>
	<path d="M166.626,102.479c0.098,0.006,0.202,0.013,0.299,0.013c0.442,0,0.871-0.176,0.871-0.748c0-0.273-0.163-0.722-0.845-0.722
		c-0.812,0-0.865,0.663-0.891,0.981h-0.559c0-0.669,0.273-1.495,1.476-1.495c0.884,0,1.411,0.507,1.411,1.203
		c0,0.585-0.338,0.865-0.585,0.942v0.013c0.442,0.143,0.76,0.455,0.76,1.066c0,0.748-0.481,1.469-1.645,1.469
		c-0.338,0-0.624-0.084-0.845-0.202c-0.507-0.267-0.643-0.793-0.682-1.319h0.591c0.02,0.429,0.124,1.007,0.975,1.007
		c0.585,0,0.995-0.357,0.995-0.884c0-0.767-0.676-0.839-1.066-0.839c-0.085,0-0.176,0.007-0.26,0.007V102.479z"/>
	<path d="M171.515,103.968v1.111h-0.572v-1.111h-1.996v-0.559l2.093-2.899h0.475v2.964h0.669v0.494H171.515z M169.474,103.474h1.469
		V101.4h-0.013L169.474,103.474z"/>
	<path d="M172.626,106.425c0.552-1.04,0.884-1.664,0.884-3.224c0-1.073-0.37-1.866-0.89-2.886h0.383
		c0.676,1.014,1.118,1.827,1.118,3.042c0,1.144-0.396,2.067-1.099,3.068H172.626z"/>
</g>
<g>
	<g>
		<g>
			<path d="M127.924,9.728l-0.833-1.373l0.047-0.031l2.237,0.889c0.78,0.172,1.561,0.344,2.342,0.516
				c-0.781,0.17-1.562,0.342-2.342,0.514l-2.237,0.891l-0.047-0.025L127.924,9.728z"/>
		</g>
		
			<line fill="none" stroke="#000000" stroke-width="0.4" stroke-linecap="round" stroke-linejoin="round" x1="100.5" y1="9.708" x2="128.393" y2="9.708"/>
	</g>
</g>
<g>
	<g>
		<g>
			<path d="M39.344,9.728l0.834-1.373l-0.047-0.031l-2.238,0.889c-0.779,0.172-1.561,0.344-2.342,0.516
				c0.781,0.17,1.562,0.342,2.342,0.514l2.238,0.891l0.047-0.025L39.344,9.728z"/>
		</g>
		
			<line fill="none" stroke="#000000" stroke-width="0.4" stroke-linecap="round" stroke-linejoin="round" x1="66.375" y1="9.708" x2="38.875" y2="9.708"/>
	</g>
</g>
<g>
	<g>
		<g>
			<path d="M164.516,27.857l1.373,0.833l0.031-0.047l-0.889-2.237c-0.172-0.78-0.344-1.561-0.516-2.342
				c-0.17,0.781-0.342,1.562-0.514,2.342l-0.891,2.237l0.025,0.047L164.516,27.857z"/>
		</g>
		
			<line fill="none" stroke="#000000" stroke-width="0.4" stroke-linecap="round" stroke-linejoin="round" x1="164.536" y1="90" x2="164.536" y2="27.388"/>
	</g>
</g>
<g>
	<g>
		<g>
			<path d="M164.516,245.292l1.373-0.833l0.031,0.047l-0.889,2.237c-0.172,0.78-0.344,1.561-0.516,2.342
				c-0.17-0.781-0.342-1.562-0.514-2.342l-0.891-2.237l0.025-0.047L164.516,245.292z"/>
		</g>
		
			<line fill="none" stroke="#000000" stroke-width="0.4" stroke-linecap="round" stroke-linejoin="round" x1="164.536" y1="108.75" x2="164.536" y2="245.761"/>
	</g>
</g>
<g>
	
		<line fill="none" stroke="#000000" stroke-width="0.3" stroke-linecap="round" stroke-linejoin="round" x1="134.833" y1="249.884" x2="191.5" y2="249.884"/>
	<g>
		<path d="M169.969,269.779v1.367h-0.704v-1.367h-2.455v-0.688l2.574-3.566h0.584v3.646h0.823v0.608H169.969z M167.458,269.171
			h1.807v-2.55h-0.016L167.458,269.171z"/>
		<path d="M171.619,265.405h0.583v2.039h-0.583V265.405z M172.754,265.405h0.584v2.039h-0.584V265.405z"/>
		<path d="M177.26,266.381c-0.553,1.04-0.884,1.664-0.884,3.224c0,1.072,0.371,1.866,0.891,2.886h-0.384
			c-0.676-1.014-1.118-1.827-1.118-3.042c0-1.144,0.396-2.067,1.099-3.068H177.26z"/>
		<path d="M179.171,271.146h-0.611v-3.244h-1.066v-0.455c0.741-0.052,1.046-0.124,1.229-0.871h0.448V271.146z"/>
		<path d="M181.934,271.27c-1.313,0-1.567-1.397-1.567-2.347s0.254-2.347,1.567-2.347s1.566,1.397,1.566,2.347
			S183.247,271.27,181.934,271.27z M181.934,267.09c-0.657,0-0.956,0.689-0.956,1.833s0.299,1.833,0.956,1.833
			c0.656,0,0.956-0.689,0.956-1.833S182.59,267.09,181.934,267.09z"/>
		<path d="M184.026,268.214c0-1.489,1.085-1.638,1.58-1.638c0.793,0,1.43,0.514,1.43,1.365c0,0.819-0.54,1.164-1.222,1.527
			l-0.475,0.26c-0.624,0.344-0.76,0.702-0.787,0.877h2.483v0.54h-3.126c0.032-0.949,0.461-1.456,1.072-1.813l0.604-0.351
			c0.488-0.279,0.838-0.468,0.838-1.066c0-0.364-0.234-0.826-0.903-0.826c-0.865,0-0.903,0.806-0.923,1.125H184.026z"/>
		<path d="M187.582,272.492c0.552-1.04,0.884-1.664,0.884-3.224c0-1.073-0.371-1.866-0.891-2.886h0.384
			c0.676,1.014,1.118,1.827,1.118,3.042c0,1.144-0.396,2.067-1.099,3.068H187.582z"/>
	</g>
	<g>
		<g>
			<g>
				<path d="M178.024,254.985l1.373,0.834l0.031-0.047l-0.889-2.238c-0.172-0.779-0.344-1.561-0.516-2.342
					c-0.17,0.781-0.342,1.562-0.514,2.342l-0.891,2.238l0.025,0.047L178.024,254.985z"/>
			</g>
			
				<line fill="none" stroke="#000000" stroke-width="0.4" stroke-linecap="round" stroke-linejoin="round" x1="178.043" y1="262.054" x2="178.043" y2="254.517"/>
		</g>
	</g>
	<g>
		<g>
			<g>
				<path d="M178.024,234.495l1.373-0.834l0.031,0.047l-0.889,2.238c-0.172,0.779-0.344,1.561-0.516,2.342
					c-0.17-0.781-0.342-1.562-0.514-2.342l-0.891-2.238l0.025-0.047L178.024,234.495z"/>
			</g>
			
				<line fill="none" stroke="#000000" stroke-width="0.4" stroke-linecap="round" stroke-linejoin="round" x1="178.043" y1="227.411" x2="178.043" y2="234.963"/>
		</g>
	</g>
	
		<line fill="none" stroke="#000000" stroke-width="0.3" stroke-linecap="round" stroke-linejoin="round" x1="169.875" y1="239.153" x2="186.208" y2="239.153"/>
</g>
<g>
	<g>
		<g>
			<path d="M148.432,178.531l1.373-0.833l0.031,0.047l-0.889,2.237c-0.172,0.78-0.344,1.561-0.516,2.342
				c-0.17-0.781-0.342-1.562-0.514-2.342l-0.891-2.237l0.025-0.047L148.432,178.531z"/>
		</g>
		
			<line fill="none" stroke="#000000" stroke-width="0.4" stroke-linecap="round" stroke-linejoin="round" x1="148.452" y1="139" x2="148.452" y2="179"/>
	</g>
</g>
<g>
	<g>
		<g>
			<path d="M148.432,55.085l1.373,0.833l0.031-0.047l-0.889-2.237c-0.172-0.78-0.344-1.561-0.516-2.342
				c-0.17,0.781-0.342,1.562-0.514,2.342l-0.891,2.237l0.025,0.047L148.432,55.085z"/>
		</g>
		
			<line fill="none" stroke="#000000" stroke-width="0.4" stroke-linecap="round" stroke-linejoin="round" x1="148.452" y1="118.875" x2="148.452" y2="54.616"/>
	</g>
</g>
<g>
	<path d="M138.759,125.06c0.24-0.184,0.583-0.352,1.087-0.352c0.912,0,1.847,0.64,1.847,1.799c0,0.624-0.28,1.975-2.039,1.975
		c-0.735,0-1.679-0.296-1.815-1.551h0.728c0.072,0.656,0.56,0.944,1.191,0.944c0.728,0,1.183-0.584,1.183-1.288
		c0-0.808-0.551-1.247-1.247-1.247c-0.408,0-0.775,0.192-1.04,0.536l-0.607-0.032l0.424-3.014h2.91v0.688h-2.383L138.759,125.06z"/>
	<path d="M144.254,128.482c-1.615,0-1.927-1.719-1.927-2.886c0-1.167,0.312-2.887,1.927-2.887c1.615,0,1.927,1.719,1.927,2.887
		C146.181,126.763,145.869,128.482,144.254,128.482z M144.254,123.341c-0.808,0-1.175,0.848-1.175,2.255s0.368,2.255,1.175,2.255
		s1.175-0.848,1.175-2.255S145.062,123.341,144.254,123.341z"/>
	<path d="M148.335,123.73c0.098,0.006,0.202,0.013,0.299,0.013c0.442,0,0.871-0.176,0.871-0.748c0-0.273-0.162-0.722-0.845-0.722
		c-0.812,0-0.865,0.663-0.891,0.981h-0.559c0-0.669,0.273-1.495,1.476-1.495c0.884,0,1.411,0.507,1.411,1.203
		c0,0.585-0.338,0.865-0.585,0.942v0.013c0.442,0.143,0.76,0.455,0.76,1.066c0,0.748-0.481,1.469-1.645,1.469
		c-0.338,0-0.624-0.084-0.845-0.202c-0.507-0.267-0.644-0.793-0.683-1.319h0.591c0.02,0.429,0.124,1.007,0.975,1.007
		c0.585,0,0.995-0.357,0.995-0.884c0-0.767-0.676-0.839-1.066-0.839c-0.084,0-0.176,0.007-0.26,0.007V123.73z"/>
	<path d="M150.893,128.482h-0.536l1.967-6.044h0.528L150.893,128.482z"/>
	<path d="M155.448,127.219v1.111h-0.572v-1.111h-1.996v-0.559l2.093-2.899h0.475v2.964h0.669v0.494H155.448z M153.406,126.725h1.469
		v-2.074h-0.013L153.406,126.725z"/>
	<path d="M156.891,122.589h0.583v2.039h-0.583V122.589z M158.026,122.589h0.584v2.039h-0.584V122.589z"/>
	<path d="M140.922,130.565c-0.552,1.04-0.884,1.664-0.884,3.224c0,1.073,0.371,1.866,0.891,2.886h-0.384
		c-0.676-1.014-1.118-1.827-1.118-3.042c0-1.144,0.396-2.067,1.098-3.068H140.922z"/>
	<path d="M143.483,135.33h-0.611v-3.244h-1.066v-0.455c0.741-0.052,1.046-0.124,1.229-0.871h0.448V135.33z"/>
	<path d="M145.049,132.398c0-1.488,1.085-1.638,1.58-1.638c0.793,0,1.43,0.514,1.43,1.365c0,0.819-0.54,1.164-1.222,1.527
		l-0.475,0.26c-0.624,0.344-0.76,0.702-0.786,0.877h2.483v0.54h-3.126c0.032-0.949,0.461-1.456,1.072-1.813l0.604-0.351
		c0.488-0.28,0.839-0.468,0.839-1.066c0-0.364-0.234-0.826-0.904-0.826c-0.864,0-0.903,0.806-0.923,1.125H145.049z"/>
	<path d="M150.991,132.899c0.617,0.26,0.748,0.767,0.748,1.112c0,0.734-0.468,1.443-1.547,1.443c-0.253,0-0.734-0.065-1.099-0.351
		c-0.468-0.371-0.468-0.864-0.468-1.085c0-0.559,0.292-0.917,0.773-1.112c-0.39-0.149-0.618-0.461-0.618-0.89
		c0-0.475,0.292-1.255,1.385-1.255c1.014,0,1.411,0.644,1.411,1.177C151.576,132.593,151.192,132.795,150.991,132.899z
		 M149.235,134.03c0,0.364,0.182,0.91,0.975,0.91c0.416,0,0.917-0.149,0.917-0.864c0-0.618-0.429-0.891-0.949-0.891
		C149.535,133.185,149.235,133.607,149.235,134.03z M150.984,131.957c0-0.28-0.182-0.683-0.852-0.683
		c-0.611,0-0.76,0.422-0.76,0.715c0,0.436,0.383,0.702,0.799,0.702C150.666,132.691,150.984,132.373,150.984,131.957z"/>
	<path d="M152.265,132.327c0-0.832,0.507-1.567,1.469-1.567c1.456,0,1.599,1.378,1.599,2.119c0,0.488-0.084,2.574-1.658,2.574
		c-1.072,0-1.358-0.78-1.358-1.222h0.572c0.032,0.461,0.305,0.748,0.773,0.748c0.624,0,0.956-0.526,1.099-1.709l-0.013-0.013
		c-0.169,0.351-0.624,0.546-1.046,0.546C152.856,133.803,152.265,133.237,152.265,132.327z M154.663,132.249
		c0-0.52-0.267-0.975-0.923-0.975c-0.533,0-0.884,0.416-0.884,1.027c0,0.878,0.546,0.988,0.93,0.988
		C154.084,133.289,154.663,133.152,154.663,132.249z"/>
	<path d="M155.833,136.676c0.552-1.04,0.884-1.664,0.884-3.224c0-1.073-0.37-1.866-0.89-2.886h0.383
		c0.676,1.014,1.118,1.827,1.118,3.042c0,1.144-0.396,2.067-1.099,3.068H155.833z"/>
</g>
<g>
	<g>
		<g>
			<path d="M148.432,245.299l1.373-0.833l0.031,0.047l-0.889,2.237c-0.172,0.78-0.344,1.561-0.516,2.342
				c-0.17-0.781-0.342-1.562-0.514-2.342l-0.891-2.237l0.025-0.047L148.432,245.299z"/>
		</g>
		
			<line fill="none" stroke="#000000" stroke-width="0.4" stroke-linecap="round" stroke-linejoin="round" x1="148.452" y1="224.812" x2="148.452" y2="245.768"/>
	</g>
</g>
<g>
	<g>
		<g>
			<path d="M148.432,187.835l1.373,0.833l0.031-0.047l-0.889-2.237c-0.172-0.78-0.344-1.561-0.516-2.342
				c-0.17,0.781-0.342,1.562-0.514,2.342l-0.891,2.237l0.025,0.047L148.432,187.835z"/>
		</g>
		
			<line fill="none" stroke="#000000" stroke-width="0.4" stroke-linecap="round" stroke-linejoin="round" x1="148.452" y1="204.688" x2="148.452" y2="187.366"/>
	</g>
</g>
<g>
	<path d="M142.861,210.537c0-1.831,1.335-2.015,1.943-2.015c0.976,0,1.759,0.632,1.759,1.679c0,1.007-0.664,1.431-1.503,1.879
		l-0.583,0.32c-0.768,0.424-0.936,0.864-0.968,1.08h3.055v0.664h-3.846c0.04-1.167,0.568-1.791,1.319-2.231l0.744-0.432
		c0.6-0.344,1.031-0.576,1.031-1.311c0-0.448-0.288-1.016-1.111-1.016c-1.063,0-1.111,0.991-1.135,1.383H142.861z"/>
	<path d="M148.749,210.944c0.12,0.008,0.248,0.016,0.368,0.016c0.544,0,1.071-0.216,1.071-0.919c0-0.336-0.2-0.888-1.039-0.888
		c-1,0-1.063,0.815-1.096,1.208h-0.688c0-0.824,0.336-1.839,1.815-1.839c1.087,0,1.735,0.624,1.735,1.479
		c0,0.72-0.416,1.063-0.72,1.159v0.016c0.543,0.176,0.936,0.56,0.936,1.311c0,0.92-0.592,1.807-2.023,1.807
		c-0.416,0-0.768-0.104-1.04-0.248c-0.624-0.328-0.792-0.976-0.839-1.624h0.728c0.024,0.528,0.152,1.24,1.199,1.24
		c0.72,0,1.223-0.44,1.223-1.088c0-0.943-0.832-1.031-1.311-1.031c-0.104,0-0.216,0.008-0.32,0.008V210.944z"/>
	<path d="M151.965,208.402h0.583v2.039h-0.583V208.402z M153.101,208.402h0.583v2.039h-0.583V208.402z"/>
	<path d="M142.729,216.378c-0.552,1.04-0.884,1.664-0.884,3.224c0,1.073,0.37,1.866,0.89,2.886h-0.383
		c-0.676-1.014-1.118-1.827-1.118-3.042c0-1.144,0.396-2.067,1.099-3.068H142.729z"/>
	<path d="M143.912,218.484c0.195-0.149,0.475-0.286,0.884-0.286c0.741,0,1.501,0.52,1.501,1.463c0,0.507-0.228,1.605-1.657,1.605
		c-0.598,0-1.365-0.241-1.476-1.261h0.591c0.059,0.533,0.455,0.767,0.969,0.767c0.591,0,0.962-0.475,0.962-1.046
		c0-0.657-0.449-1.014-1.014-1.014c-0.332,0-0.63,0.156-0.845,0.436l-0.494-0.026l0.344-2.451h2.366v0.559h-1.937L143.912,218.484z"
		/>
	<path d="M149.184,218.711c0.618,0.26,0.748,0.767,0.748,1.112c0,0.734-0.468,1.443-1.547,1.443c-0.253,0-0.734-0.065-1.098-0.351
		c-0.468-0.371-0.468-0.864-0.468-1.085c0-0.559,0.292-0.917,0.773-1.112c-0.39-0.149-0.617-0.461-0.617-0.89
		c0-0.475,0.292-1.255,1.384-1.255c1.014,0,1.411,0.644,1.411,1.177C149.769,218.406,149.385,218.607,149.184,218.711z
		 M147.429,219.843c0,0.364,0.182,0.91,0.975,0.91c0.416,0,0.917-0.149,0.917-0.864c0-0.618-0.429-0.891-0.949-0.891
		C147.728,218.998,147.429,219.42,147.429,219.843z M149.177,217.769c0-0.28-0.182-0.683-0.852-0.683
		c-0.611,0-0.761,0.422-0.761,0.715c0,0.436,0.384,0.702,0.8,0.702C148.858,218.503,149.177,218.185,149.177,217.769z"/>
	<path d="M152.915,220.031v1.111h-0.572v-1.111h-1.995v-0.559l2.093-2.899h0.475v2.964h0.669v0.494H152.915z M150.874,219.537h1.469
		v-2.074h-0.013L150.874,219.537z"/>
	<path d="M154.026,222.488c0.553-1.04,0.884-1.664,0.884-3.224c0-1.073-0.371-1.866-0.891-2.886h0.383
		c0.676,1.014,1.118,1.827,1.118,3.042c0,1.144-0.396,2.067-1.099,3.068H154.026z"/>
</g>
<line fill="none" stroke="#000000" stroke-width="0.3" stroke-linecap="round" stroke-linejoin="round" x1="134.875" y1="282.134" x2="169.792" y2="282.134"/>
<g>
	<path d="M146.06,308.495c0-1.831,1.335-2.015,1.943-2.015c0.975,0,1.759,0.632,1.759,1.68c0,1.007-0.664,1.431-1.503,1.879
		l-0.584,0.319c-0.768,0.424-0.936,0.863-0.967,1.079h3.054v0.664h-3.846c0.04-1.167,0.567-1.791,1.319-2.23l0.743-0.432
		c0.6-0.344,1.032-0.576,1.032-1.312c0-0.448-0.288-1.016-1.111-1.016c-1.063,0-1.111,0.991-1.136,1.383H146.06z"/>
	<path d="M151.947,308.903c0.12,0.008,0.248,0.016,0.368,0.016c0.543,0,1.071-0.216,1.071-0.919c0-0.336-0.2-0.888-1.04-0.888
		c-1,0-1.063,0.815-1.095,1.207h-0.688c0-0.823,0.335-1.839,1.815-1.839c1.087,0,1.735,0.624,1.735,1.479
		c0,0.72-0.416,1.063-0.72,1.159v0.016c0.544,0.177,0.936,0.561,0.936,1.312c0,0.92-0.592,1.808-2.023,1.808
		c-0.416,0-0.768-0.104-1.039-0.248c-0.624-0.328-0.792-0.976-0.84-1.623h0.728c0.024,0.527,0.152,1.239,1.2,1.239
		c0.719,0,1.223-0.44,1.223-1.088c0-0.943-0.832-1.031-1.312-1.031c-0.104,0-0.216,0.008-0.32,0.008V308.903z"/>
	<path d="M155.245,305.629h3.159v0.501c-0.455,0.475-1.547,1.931-1.879,3.972h-0.63c0.156-1.255,0.988-2.893,1.866-3.913h-2.516
		V305.629z"/>
	<path d="M159.018,312.254h-0.536l1.967-6.045h0.528L159.018,312.254z"/>
	<path d="M163.455,309.671c0.618,0.26,0.748,0.767,0.748,1.111c0,0.734-0.468,1.442-1.547,1.442c-0.254,0-0.735-0.064-1.099-0.351
		c-0.468-0.37-0.468-0.864-0.468-1.086c0-0.559,0.292-0.916,0.773-1.111c-0.39-0.149-0.617-0.461-0.617-0.891
		c0-0.475,0.292-1.254,1.384-1.254c1.014,0,1.411,0.644,1.411,1.176C164.04,309.365,163.657,309.566,163.455,309.671z
		 M161.7,310.802c0,0.364,0.182,0.91,0.975,0.91c0.416,0,0.917-0.149,0.917-0.865c0-0.617-0.429-0.891-0.949-0.891
		C161.999,309.956,161.7,310.379,161.7,310.802z M163.449,308.728c0-0.279-0.182-0.683-0.852-0.683
		c-0.611,0-0.761,0.423-0.761,0.716c0,0.436,0.384,0.702,0.8,0.702C163.13,309.463,163.449,309.144,163.449,308.728z"/>
	<path d="M165.016,306.36h0.583v2.039h-0.583V306.36z M166.151,306.36h0.584v2.039h-0.584V306.36z"/>
	<path d="M150.854,314.337c-0.552,1.04-0.884,1.664-0.884,3.224c0,1.073,0.37,1.866,0.89,2.887h-0.383
		c-0.676-1.015-1.118-1.827-1.118-3.042c0-1.145,0.396-2.067,1.099-3.068H150.854z"/>
	<path d="M153.792,315.747c-0.071-0.402-0.292-0.702-0.787-0.702c-0.897,0-1.085,1.21-1.085,1.69l0.013,0.013
		c0.143-0.246,0.461-0.559,1.085-0.559c0.559,0,1.43,0.357,1.43,1.449c0,0.469-0.124,0.807-0.436,1.145
		c-0.241,0.267-0.514,0.441-1.157,0.441c-0.351,0-0.852-0.155-1.176-0.662c-0.273-0.43-0.351-0.988-0.351-1.587
		c0-1.001,0.325-2.443,1.69-2.443c0.526,0,1.274,0.286,1.333,1.215H153.792z M152.959,318.712c0.546,0,0.897-0.43,0.897-1.047
		c0-0.403-0.214-0.962-0.923-0.962c-0.63,0-0.936,0.455-0.936,0.994C151.998,318.185,152.29,318.712,152.959,318.712z"/>
	<path d="M156.502,319.225c-1.313,0-1.566-1.397-1.566-2.346c0-0.949,0.253-2.347,1.566-2.347s1.566,1.397,1.566,2.347
		C158.068,317.827,157.815,319.225,156.502,319.225z M156.502,315.045c-0.656,0-0.956,0.689-0.956,1.834
		c0,1.144,0.299,1.833,0.956,1.833c0.657,0,0.956-0.689,0.956-1.833C157.458,315.734,157.159,315.045,156.502,315.045z"/>
	<path d="M161.02,315.747c-0.071-0.402-0.292-0.702-0.787-0.702c-0.897,0-1.085,1.21-1.085,1.69l0.013,0.013
		c0.143-0.246,0.461-0.559,1.085-0.559c0.559,0,1.43,0.357,1.43,1.449c0,0.469-0.124,0.807-0.436,1.145
		c-0.241,0.267-0.514,0.441-1.157,0.441c-0.351,0-0.852-0.155-1.177-0.662c-0.273-0.43-0.351-0.988-0.351-1.587
		c0-1.001,0.325-2.443,1.69-2.443c0.526,0,1.274,0.286,1.333,1.215H161.02z M160.188,318.712c0.546,0,0.897-0.43,0.897-1.047
		c0-0.403-0.214-0.962-0.923-0.962c-0.631,0-0.936,0.455-0.936,0.994C159.226,318.185,159.518,318.712,160.188,318.712z"/>
	<path d="M162.15,320.447c0.553-1.04,0.884-1.664,0.884-3.225c0-1.072-0.371-1.865-0.891-2.886h0.383
		c0.676,1.014,1.118,1.826,1.118,3.042c0,1.145-0.396,2.067-1.099,3.068H162.15z"/>
</g>
<line fill="none" stroke="#000000" stroke-width="0.3" stroke-linecap="round" stroke-linejoin="round" x1="134.875" y1="409.261" x2="191.5" y2="409.261"/>
<g>
	<g>
		<g>
			<path d="M178.057,404.675l1.373-0.833l0.031,0.047l-0.889,2.237c-0.172,0.78-0.344,1.561-0.516,2.342
				c-0.17-0.781-0.342-1.562-0.514-2.342l-0.891-2.237l0.025-0.047L178.057,404.675z"/>
		</g>
		
			<line fill="none" stroke="#000000" stroke-width="0.4" stroke-linecap="round" stroke-linejoin="round" x1="178.076" y1="381.156" x2="178.076" y2="405.144"/>
	</g>
</g>
<g>
	<g>
		<g>
			<path d="M178.057,351.127l1.373,0.833l0.031-0.047l-0.889-2.237c-0.172-0.78-0.344-1.561-0.516-2.342
				c-0.17,0.781-0.342,1.562-0.514,2.342l-0.891,2.237l0.025,0.047L178.057,351.127z"/>
		</g>
		
			<line fill="none" stroke="#000000" stroke-width="0.4" stroke-linecap="round" stroke-linejoin="round" x1="178.076" y1="361.625" x2="178.076" y2="350.658"/>
	</g>
</g>
<g>
	<path d="M169.372,367.327c0-1.831,1.335-2.015,1.943-2.015c0.975,0,1.759,0.632,1.759,1.68c0,1.007-0.664,1.431-1.503,1.879
		l-0.584,0.319c-0.768,0.424-0.936,0.863-0.967,1.079h3.054v0.664h-3.846c0.04-1.167,0.567-1.791,1.319-2.23l0.743-0.432
		c0.6-0.344,1.032-0.576,1.032-1.312c0-0.448-0.288-1.016-1.111-1.016c-1.063,0-1.111,0.991-1.136,1.383H169.372z"/>
	<path d="M175.259,367.735c0.12,0.008,0.248,0.016,0.368,0.016c0.543,0,1.071-0.216,1.071-0.919c0-0.336-0.2-0.888-1.04-0.888
		c-1,0-1.063,0.815-1.095,1.207h-0.688c0-0.823,0.335-1.839,1.815-1.839c1.087,0,1.735,0.624,1.735,1.479
		c0,0.72-0.416,1.063-0.72,1.159v0.016c0.544,0.177,0.936,0.561,0.936,1.312c0,0.92-0.592,1.808-2.023,1.808
		c-0.416,0-0.768-0.104-1.039-0.248c-0.624-0.328-0.792-0.976-0.84-1.623h0.728c0.024,0.527,0.152,1.239,1.2,1.239
		c0.719,0,1.223-0.44,1.223-1.088c0-0.943-0.832-1.031-1.312-1.031c-0.104,0-0.216,0.008-0.32,0.008V367.735z"/>
	<path d="M179.272,366.275c0.195-0.15,0.475-0.286,0.884-0.286c0.741,0,1.501,0.52,1.501,1.462c0,0.508-0.228,1.605-1.658,1.605
		c-0.598,0-1.365-0.24-1.476-1.261h0.592c0.058,0.533,0.455,0.768,0.968,0.768c0.592,0,0.962-0.475,0.962-1.047
		c0-0.656-0.448-1.014-1.014-1.014c-0.332,0-0.631,0.155-0.845,0.436l-0.494-0.026l0.345-2.451h2.366v0.56h-1.938L179.272,366.275z"
		/>
	<path d="M182.33,371.086h-0.536l1.967-6.045h0.528L182.33,371.086z"/>
	<path d="M186.768,368.503c0.618,0.26,0.748,0.767,0.748,1.111c0,0.734-0.468,1.442-1.547,1.442c-0.254,0-0.735-0.064-1.099-0.351
		c-0.468-0.37-0.468-0.864-0.468-1.086c0-0.559,0.292-0.916,0.773-1.111c-0.39-0.149-0.617-0.461-0.617-0.891
		c0-0.475,0.292-1.254,1.384-1.254c1.014,0,1.411,0.644,1.411,1.176C187.353,368.197,186.969,368.398,186.768,368.503z
		 M185.013,369.634c0,0.364,0.182,0.91,0.975,0.91c0.416,0,0.917-0.149,0.917-0.865c0-0.617-0.429-0.891-0.949-0.891
		C185.312,368.788,185.013,369.211,185.013,369.634z M186.761,367.56c0-0.279-0.182-0.683-0.852-0.683
		c-0.611,0-0.761,0.423-0.761,0.716c0,0.436,0.384,0.702,0.8,0.702C186.442,368.295,186.761,367.976,186.761,367.56z"/>
	<path d="M188.328,365.192h0.583v2.039h-0.583V365.192z M189.463,365.192h0.584v2.039h-0.584V365.192z"/>
	<path d="M172.359,373.169c-0.552,1.04-0.884,1.664-0.884,3.224c0,1.073,0.371,1.866,0.891,2.887h-0.384
		c-0.676-1.015-1.118-1.827-1.118-3.042c0-1.145,0.396-2.067,1.098-3.068H172.359z"/>
	<path d="M175.297,374.579c-0.071-0.402-0.292-0.702-0.786-0.702c-0.897,0-1.086,1.21-1.086,1.69l0.013,0.013
		c0.143-0.246,0.461-0.559,1.085-0.559c0.559,0,1.43,0.357,1.43,1.449c0,0.469-0.124,0.807-0.436,1.145
		c-0.241,0.267-0.514,0.441-1.157,0.441c-0.351,0-0.852-0.155-1.176-0.662c-0.273-0.43-0.351-0.988-0.351-1.587
		c0-1.001,0.325-2.443,1.69-2.443c0.527,0,1.274,0.286,1.333,1.215H175.297z M174.465,377.544c0.546,0,0.897-0.43,0.897-1.047
		c0-0.403-0.215-0.962-0.923-0.962c-0.63,0-0.936,0.455-0.936,0.994C173.503,377.017,173.795,377.544,174.465,377.544z"/>
	<path d="M178.007,378.057c-1.313,0-1.566-1.397-1.566-2.346c0-0.949,0.253-2.347,1.566-2.347c1.313,0,1.567,1.397,1.567,2.347
		C179.574,376.659,179.321,378.057,178.007,378.057z M178.007,373.877c-0.656,0-0.956,0.689-0.956,1.834
		c0,1.144,0.299,1.833,0.956,1.833c0.657,0,0.956-0.689,0.956-1.833C178.963,374.566,178.664,373.877,178.007,373.877z"/>
	<path d="M181.622,378.057c-1.313,0-1.566-1.397-1.566-2.346c0-0.949,0.253-2.347,1.566-2.347s1.566,1.397,1.566,2.347
		C183.188,376.659,182.935,378.057,181.622,378.057z M181.622,373.877c-0.657,0-0.956,0.689-0.956,1.834
		c0,1.144,0.299,1.833,0.956,1.833c0.656,0,0.956-0.689,0.956-1.833C182.577,374.566,182.278,373.877,181.622,373.877z"/>
	<path d="M183.656,379.279c0.553-1.04,0.884-1.664,0.884-3.225c0-1.072-0.371-1.865-0.891-2.886h0.384
		c0.676,1.014,1.118,1.826,1.118,3.042c0,1.145-0.396,2.067-1.099,3.068H183.656z"/>
</g>
<line fill="none" stroke="#000000" stroke-width="0.3" stroke-linecap="round" stroke-linejoin="round" x1="134.875" y1="346.302" x2="191.5" y2="346.302"/>
<line fill="none" stroke="#000000" stroke-width="0.3" stroke-linecap="round" stroke-linejoin="round" x1="134.875" y1="402.073" x2="169.667" y2="402.073"/>
<g>
	<g>
		<g>
			<path d="M156.557,397.362l1.373-0.833l0.031,0.047l-0.889,2.237c-0.172,0.78-0.344,1.561-0.516,2.342
				c-0.17-0.781-0.342-1.562-0.514-2.342l-0.891-2.237l0.025-0.047L156.557,397.362z"/>
		</g>
		
			<line fill="none" stroke="#000000" stroke-width="0.4" stroke-linecap="round" stroke-linejoin="round" x1="156.577" y1="381.24" x2="156.577" y2="397.831"/>
	</g>
</g>
<g>
	<g>
		<g>
			<path d="M156.557,351.127l1.373,0.833l0.031-0.047l-0.889-2.237c-0.172-0.78-0.344-1.561-0.516-2.342
				c-0.17,0.781-0.342,1.562-0.514,2.342l-0.891,2.237l0.025,0.047L156.557,351.127z"/>
		</g>
		
			<line fill="none" stroke="#000000" stroke-width="0.4" stroke-linecap="round" stroke-linejoin="round" x1="156.577" y1="361.562" x2="156.577" y2="350.658"/>
	</g>
</g>
<g>
	<path d="M147.735,371.018h-0.752v-3.99h-1.311v-0.56c0.912-0.063,1.287-0.151,1.511-1.071h0.552V371.018z"/>
	<path d="M149.648,367.323c0-1.023,0.624-1.927,1.807-1.927c1.791,0,1.967,1.695,1.967,2.606c0,0.6-0.104,3.167-2.039,3.167
		c-1.319,0-1.671-0.96-1.671-1.504h0.704c0.04,0.568,0.376,0.92,0.952,0.92c0.768,0,1.175-0.647,1.351-2.103l-0.016-0.017
		c-0.208,0.432-0.768,0.672-1.287,0.672C150.376,369.139,149.648,368.443,149.648,367.323z M152.599,367.228
		c0-0.64-0.328-1.199-1.136-1.199c-0.655,0-1.087,0.512-1.087,1.264c0,1.079,0.672,1.215,1.144,1.215
		C151.887,368.507,152.599,368.339,152.599,367.228z"/>
	<path d="M156.094,369.018h-0.611v-3.243h-1.066v-0.455c0.741-0.053,1.047-0.124,1.229-0.871h0.448V369.018z"/>
	<path d="M157.612,371.17h-0.536l1.967-6.045h0.528L157.612,371.17z"/>
	<path d="M159.722,368.086c0-1.488,1.085-1.638,1.58-1.638c0.793,0,1.43,0.513,1.43,1.364c0,0.819-0.54,1.164-1.222,1.528
		l-0.475,0.26c-0.624,0.345-0.76,0.702-0.787,0.878h2.483v0.539h-3.127c0.033-0.949,0.462-1.456,1.073-1.813l0.604-0.352
		c0.488-0.279,0.838-0.468,0.838-1.065c0-0.364-0.234-0.826-0.903-0.826c-0.865,0-0.903,0.807-0.923,1.125H159.722z"/>
	<path d="M163.61,365.276h0.583v2.039h-0.583V365.276z M164.745,365.276h0.584v2.039h-0.584V365.276z"/>
	<path d="M150.632,373.253c-0.552,1.04-0.884,1.664-0.884,3.224c0,1.073,0.371,1.866,0.891,2.887h-0.384
		c-0.676-1.015-1.118-1.827-1.118-3.042c0-1.145,0.396-2.067,1.098-3.068H150.632z"/>
	<path d="M153.59,376.906v1.111h-0.572v-1.111h-1.996v-0.56l2.093-2.898h0.474v2.964h0.67v0.494H153.59z M151.549,376.412h1.469
		v-2.073h-0.013L151.549,376.412z"/>
	<path d="M154.747,375.015c0-0.832,0.507-1.566,1.469-1.566c1.456,0,1.599,1.378,1.599,2.119c0,0.487-0.084,2.573-1.657,2.573
		c-1.073,0-1.359-0.779-1.359-1.222h0.572c0.032,0.462,0.305,0.748,0.773,0.748c0.624,0,0.956-0.527,1.099-1.71l-0.013-0.013
		c-0.169,0.351-0.624,0.546-1.046,0.546C155.338,376.49,154.747,375.925,154.747,375.015z M157.146,374.937
		c0-0.521-0.267-0.976-0.923-0.976c-0.533,0-0.884,0.416-0.884,1.027c0,0.878,0.546,0.988,0.93,0.988
		C156.567,375.977,157.146,375.84,157.146,374.937z"/>
	<path d="M159.043,375.359c0.195-0.15,0.475-0.286,0.884-0.286c0.741,0,1.501,0.52,1.501,1.462c0,0.508-0.228,1.605-1.658,1.605
		c-0.598,0-1.365-0.24-1.476-1.261h0.592c0.058,0.533,0.455,0.768,0.968,0.768c0.592,0,0.962-0.475,0.962-1.047
		c0-0.656-0.448-1.014-1.014-1.014c-0.332,0-0.631,0.155-0.845,0.436l-0.494-0.026l0.345-2.451h2.366v0.56h-1.938L159.043,375.359z"
		/>
	<path d="M161.929,379.363c0.553-1.04,0.884-1.664,0.884-3.225c0-1.072-0.371-1.865-0.891-2.886h0.384
		c0.676,1.014,1.118,1.826,1.118,3.042c0,1.145-0.396,2.067-1.098,3.068H161.929z"/>
</g>
<path fill="none" stroke="#000000" stroke-width="0.36" stroke-linecap="round" stroke-linejoin="round" d="M34.973,253.738"/>
<g>
	
		<rect x="193.87" y="22.529" fill="none" stroke="#000000" stroke-width="0.6" stroke-linecap="round" stroke-linejoin="round" width="0.97" height="216.517"/>
	<g>
		<path fill="none" stroke="#000000" stroke-width="0.8" stroke-linecap="round" stroke-linejoin="round" d="M193.832,49.029"/>
		<polyline fill="none" stroke="#000000" stroke-width="0.7" stroke-linecap="round" stroke-linejoin="round" points="
			193.832,49.029 189.073,49.029 189.073,23.166 193.832,23.166 		"/>
		<polyline fill="none" stroke="#000000" stroke-width="0.5" stroke-linecap="round" stroke-linejoin="round" points="
			193.708,50.219 189.752,50.219 189.752,49.373 193.708,49.373 		"/>
		<polyline fill="none" stroke="#000000" stroke-width="0.7" stroke-linecap="round" stroke-linejoin="round" points="
			193.839,238.986 189.073,238.986 189.073,184.708 193.839,184.708 		"/>
		<path fill="none" stroke="#000000" stroke-width="0.8" stroke-linecap="round" stroke-linejoin="round" d="M193.832,183.171"/>
		<polyline fill="none" stroke="#000000" stroke-width="0.7" stroke-linecap="round" stroke-linejoin="round" points="
			193.832,183.077 189.073,183.077 189.073,50.277 193.832,50.277 		"/>
		<polyline fill="none" stroke="#000000" stroke-width="0.5" stroke-linecap="round" stroke-linejoin="round" points="
			193.749,184.202 189.752,184.202 189.752,183.219 193.749,183.219 		"/>
		<path fill="none" stroke="#000000" stroke-width="0.6" stroke-linecap="round" stroke-linejoin="round" d="M185.802,58.134
			c0-0.442-0.504-0.803-1.118-0.803l0,0c-0.619,0-1.119,0.36-1.119,0.803v117.483c0,0.444,0.5,0.804,1.119,0.804l0,0
			c0.614,0,1.118-0.359,1.118-0.804V58.134z"/>
		
			<rect x="185.786" y="68.765" fill="none" stroke="#000000" stroke-width="0.5" stroke-linecap="round" stroke-linejoin="round" width="3.237" height="6.149"/>
		
			<rect x="185.786" y="158.534" fill="none" stroke="#000000" stroke-width="0.5" stroke-linecap="round" stroke-linejoin="round" width="3.237" height="6.148"/>
		<g>
			
				<circle fill="none" stroke="#000000" stroke-width="0.6" stroke-linecap="round" stroke-linejoin="round" cx="184.682" cy="188.94" r="1.505"/>
			<polyline fill="none" stroke="#000000" stroke-width="0.5" stroke-linecap="round" stroke-linejoin="round" points="
				185.645,190.045 189.116,190.045 189.116,187.851 185.645,187.851 			"/>
		</g>
	</g>
	<polyline fill="none" stroke="#000000" stroke-width="0.8" stroke-linecap="round" stroke-linejoin="round" points="259.12,50.893 
		259.12,248.415 201.651,248.415 201.653,239.313 	"/>
	<g>
		<polyline fill="none" stroke="#000000" stroke-width="0.8" stroke-linecap="round" stroke-linejoin="round" points="
			195.153,25.437 257.146,25.437 257.146,50.893 259.12,50.893 		"/>
	</g>
	
		<line fill="none" stroke="#000000" stroke-width="0.6" stroke-linecap="round" stroke-linejoin="round" x1="258.99" y1="239.041" x2="194.821" y2="239.041"/>
	<path fill="none" stroke="#000000" stroke-width="0.5" stroke-linecap="round" stroke-linejoin="round" d="M193.805,238.983"/>
	
		<line fill="none" stroke="#000000" stroke-width="0.5" stroke-linecap="round" stroke-linejoin="round" x1="197.865" y1="47.468" x2="197.865" y2="238.983"/>
	
		<line fill="none" stroke="#000000" stroke-width="0.5" stroke-linecap="round" stroke-linejoin="round" x1="199.732" y1="47.468" x2="199.732" y2="238.983"/>
	<polyline fill="none" stroke="#000000" stroke-width="0.6" stroke-linecap="round" stroke-linejoin="round" points="
		202.398,238.955 202.398,49.887 199.819,47.364 195.153,47.36 	"/>
	
		<line fill="none" stroke="#000000" stroke-width="0.6" stroke-linecap="round" stroke-linejoin="round" x1="202.458" y1="50.991" x2="259.046" y2="50.991"/>
	<g>
		<polyline fill="none" stroke="#000000" stroke-width="0.6" stroke-linecap="round" stroke-linejoin="round" points="
			201.884,248.652 201.884,249.326 205.703,249.326 205.703,248.652 		"/>
	</g>
	<path fill="none" stroke="#000000" stroke-width="0.6" stroke-linecap="round" stroke-linejoin="round" d="M209.081,248.537
		c-0.215,0.505-0.713,0.856-1.293,0.856s-1.078-0.352-1.29-0.854"/>
	<path fill="none" stroke="#000000" stroke-width="0.6" stroke-linecap="round" stroke-linejoin="round" d="M258.194,248.537
		c-0.215,0.505-0.711,0.856-1.291,0.856c-0.578,0-1.078-0.352-1.289-0.854"/>
	<path fill="none" stroke="#000000" stroke-width="0.6" stroke-linecap="round" stroke-linejoin="round" d="M255.116,248.537
		c-0.213,0.505-0.711,0.856-1.291,0.856c-0.578,0-1.078-0.352-1.289-0.854"/>
</g>
<g>
	<g>
		<g>
			
				<rect x="119.409" y="183.199" fill="none" stroke="#000000" stroke-width="0.5" stroke-linecap="round" stroke-linejoin="round" width="12.69" height="0.948"/>
			
				<line fill="none" stroke="#000000" stroke-width="0.6" stroke-linecap="round" stroke-linejoin="round" x1="132.263" y1="184.723" x2="35.333" y2="184.723"/>
			<path fill="none" stroke="#000000" stroke-width="0.6" stroke-linecap="round" stroke-linejoin="round" d="M128.308,190.087
				c0.443,0,0.803-0.505,0.803-1.117l0,0c0-0.621-0.36-1.121-0.803-1.121h-89.19c-0.444,0-0.804,0.5-0.804,1.121l0,0
				c0,0.612,0.359,1.117,0.804,1.117H128.308z"/>
		</g>
	</g>
	<g>
		
			<rect x="35.085" y="23.153" fill="none" stroke="#000000" stroke-width="0.8" stroke-linecap="round" stroke-linejoin="round" width="97.177" height="224.925"/>
		
			<line fill="none" stroke="#000000" stroke-width="0.5" stroke-linecap="round" stroke-linejoin="round" x1="35.085" y1="48.972" x2="131.881" y2="48.972"/>
		
			<line fill="none" stroke="#000000" stroke-width="0.5" stroke-linecap="round" stroke-linejoin="round" x1="35.247" y1="240.305" x2="132.177" y2="240.305"/>
	</g>
	
		<line fill="none" stroke="#000000" stroke-width="0.6" stroke-linecap="round" stroke-linejoin="round" x1="132.074" y1="239.008" x2="35.425" y2="239.008"/>
	
		<rect x="36.525" y="24.534" fill="none" stroke="#000000" stroke-width="0.5" stroke-linecap="round" stroke-linejoin="round" width="94.369" height="23.25"/>
	<g>
		
			<line fill="none" stroke="#000000" stroke-width="0.6" stroke-linecap="round" stroke-linejoin="round" x1="36.702" y1="28.399" x2="130.756" y2="28.399"/>
		
			<line fill="none" stroke="#000000" stroke-width="0.6" stroke-linecap="round" stroke-linejoin="round" x1="36.702" y1="32.38" x2="130.756" y2="32.38"/>
		
			<line fill="none" stroke="#000000" stroke-width="0.6" stroke-linecap="round" stroke-linejoin="round" x1="36.702" y1="36.183" x2="130.756" y2="36.183"/>
		
			<line fill="none" stroke="#000000" stroke-width="0.6" stroke-linecap="round" stroke-linejoin="round" x1="36.702" y1="40.076" x2="130.756" y2="40.076"/>
		
			<line fill="none" stroke="#000000" stroke-width="0.6" stroke-linecap="round" stroke-linejoin="round" x1="36.702" y1="43.969" x2="130.756" y2="43.969"/>
	</g>
	
		<rect x="119.384" y="49.309" fill="none" stroke="#000000" stroke-width="0.5" stroke-linecap="round" stroke-linejoin="round" width="12.69" height="0.948"/>
	<g>
		<polyline fill="none" stroke="#000000" stroke-width="0.5" stroke-linecap="round" stroke-linejoin="round" points="
			45.218,248.235 45.218,248.918 36.318,248.918 36.318,248.235 		"/>
		<polyline fill="none" stroke="#000000" stroke-width="0.6" stroke-linecap="round" stroke-linejoin="round" points="
			43.735,249.027 43.735,249.701 37.856,249.701 37.856,249.027 		"/>
	</g>
	<g>
		<polyline fill="none" stroke="#000000" stroke-width="0.5" stroke-linecap="round" stroke-linejoin="round" points="
			122.104,248.235 122.104,248.918 131.003,248.918 131.003,248.235 		"/>
		<polyline fill="none" stroke="#000000" stroke-width="0.6" stroke-linecap="round" stroke-linejoin="round" points="
			123.586,249.027 123.586,249.701 129.465,249.701 129.465,249.027 		"/>
	</g>
</g>
<g>
	<path fill="none" stroke="#000000" stroke-width="0.48" stroke-linecap="round" stroke-linejoin="round" d="M122.336,352.021"/>
	
		<line fill="none" stroke="#000000" stroke-width="0.5" stroke-linecap="round" stroke-linejoin="round" x1="35.618" y1="350.996" x2="131.565" y2="350.996"/>
	<path fill="none" stroke="#000000" stroke-width="0.5" stroke-linecap="round" stroke-linejoin="round" d="M122.336,352.021"/>
	
		<line fill="none" stroke="#000000" stroke-width="0.7" stroke-linecap="round" stroke-linejoin="round" x1="122.104" y1="352.086" x2="44.938" y2="352.086"/>
	<g>
		<g>
			<polyline fill="none" stroke="#000000" stroke-width="0.8" stroke-linecap="round" stroke-linejoin="round" points="
				131.512,351.592 131.512,282.201 35.7,282.201 35.7,351.562 			"/>
		</g>
	</g>
	
		<line fill="none" stroke="#000000" stroke-width="0.6" stroke-linecap="round" stroke-linejoin="round" x1="131.401" y1="343.455" x2="35.754" y2="343.547"/>
	
		<rect x="34.588" y="346.223" fill="#FFFFFF" stroke="#000000" stroke-width="0.7" stroke-linecap="round" stroke-linejoin="round" width="97.913" height="1.73"/>
</g>
<g>
	<g>
		<g>
			<path d="M156.514,287.147l1.373,0.834l0.031-0.047l-0.889-2.238c-0.172-0.779-0.344-1.561-0.516-2.342
				c-0.17,0.781-0.342,1.562-0.514,2.342l-0.891,2.238l0.025,0.047L156.514,287.147z"/>
		</g>
		
			<line fill="none" stroke="#000000" stroke-width="0.4" stroke-linecap="round" stroke-linejoin="round" x1="156.533" y1="303.167" x2="156.533" y2="286.679"/>
	</g>
</g>
<g>
	<g>
		<g>
			<path d="M156.514,341.406l1.373-0.834l0.031,0.047l-0.889,2.238c-0.172,0.779-0.344,1.561-0.516,2.342
				c-0.17-0.781-0.342-1.562-0.514-2.342l-0.891-2.238l0.025-0.047L156.514,341.406z"/>
		</g>
		
			<line fill="none" stroke="#000000" stroke-width="0.4" stroke-linecap="round" stroke-linejoin="round" x1="156.533" y1="322.75" x2="156.533" y2="341.875"/>
	</g>
</g>
<g>
	<path d="M23.208,332.652c0.76,0.319,0.919,0.943,0.919,1.367c0,0.903-0.576,1.775-1.903,1.775c-0.312,0-0.904-0.08-1.352-0.433
		c-0.576-0.455-0.576-1.063-0.576-1.335c0-0.688,0.36-1.127,0.952-1.367c-0.479-0.184-0.76-0.567-0.76-1.096
		c0-0.583,0.36-1.543,1.703-1.543c1.248,0,1.735,0.792,1.735,1.447C23.928,332.276,23.457,332.524,23.208,332.652z M21.05,334.043
		c0,0.448,0.224,1.12,1.199,1.12c0.512,0,1.127-0.185,1.127-1.063c0-0.76-0.528-1.096-1.167-1.096
		C21.417,333.004,21.05,333.523,21.05,334.043z M23.201,331.493c0-0.344-0.224-0.84-1.048-0.84c-0.751,0-0.935,0.52-0.935,0.88
		c0,0.535,0.472,0.863,0.983,0.863C22.809,332.396,23.201,332.005,23.201,331.493z"/>
	<path d="M25.002,329.901h0.583v2.039h-0.583V329.901z M26.137,329.901h0.584v2.039h-0.584V329.901z"/>
	<path d="M17.99,337.878c-0.552,1.04-0.884,1.664-0.884,3.224c0,1.073,0.37,1.866,0.89,2.887h-0.383
		c-0.676-1.015-1.118-1.827-1.118-3.042c0-1.145,0.396-2.067,1.099-3.068H17.99z"/>
	<path d="M18.503,339.711c0-1.488,1.085-1.638,1.579-1.638c0.793,0,1.43,0.513,1.43,1.364c0,0.819-0.54,1.164-1.222,1.528
		l-0.474,0.26c-0.624,0.345-0.761,0.702-0.787,0.878h2.483v0.539h-3.126c0.032-0.949,0.461-1.456,1.072-1.813l0.605-0.352
		c0.487-0.279,0.838-0.468,0.838-1.065c0-0.364-0.234-0.826-0.904-0.826c-0.864,0-0.903,0.807-0.923,1.125H18.503z"/>
	<path d="M23.638,342.766c-1.313,0-1.566-1.397-1.566-2.346c0-0.949,0.253-2.347,1.566-2.347s1.566,1.397,1.566,2.347
		C25.205,341.368,24.951,342.766,23.638,342.766z M23.638,338.586c-0.656,0-0.956,0.689-0.956,1.834
		c0,1.144,0.299,1.833,0.956,1.833c0.657,0,0.956-0.689,0.956-1.833C24.594,339.275,24.295,338.586,23.638,338.586z"/>
	<path d="M26.901,340.043c0.097,0.006,0.201,0.013,0.299,0.013c0.442,0,0.871-0.176,0.871-0.748c0-0.272-0.163-0.722-0.845-0.722
		c-0.812,0-0.864,0.663-0.89,0.982h-0.559c0-0.67,0.273-1.495,1.476-1.495c0.884,0,1.41,0.507,1.41,1.202
		c0,0.585-0.338,0.864-0.585,0.942v0.014c0.442,0.143,0.761,0.454,0.761,1.065c0,0.748-0.481,1.469-1.645,1.469
		c-0.338,0-0.624-0.084-0.845-0.201c-0.507-0.267-0.644-0.793-0.683-1.319h0.592c0.02,0.429,0.124,1.008,0.975,1.008
		c0.585,0,0.994-0.357,0.994-0.885c0-0.767-0.676-0.838-1.066-0.838c-0.084,0-0.175,0.006-0.26,0.006V340.043z"/>
	<path d="M29.287,343.988c0.553-1.04,0.884-1.664,0.884-3.225c0-1.072-0.371-1.865-0.891-2.886h0.383
		c0.676,1.014,1.118,1.826,1.118,3.042c0,1.145-0.396,2.067-1.099,3.068H29.287z"/>
</g>
<line fill="none" stroke="#000000" stroke-width="0.3" stroke-linecap="round" stroke-linejoin="round" x1="13.557" y1="323" x2="13.557" y2="389.854"/>
<line fill="none" stroke="#000000" stroke-width="0.3" stroke-linecap="round" stroke-linejoin="round" x1="34.091" y1="322.875" x2="34.091" y2="344.287"/>
<g>
	<g>
		<g>
			<path d="M38.588,333.639l0.834,1.373l-0.047,0.031l-2.238-0.889c-0.779-0.172-1.561-0.344-2.342-0.516
				c0.781-0.17,1.562-0.342,2.342-0.514l2.238-0.891l0.047,0.025L38.588,333.639z"/>
		</g>
		
			<line fill="none" stroke="#000000" stroke-width="0.4" stroke-linecap="round" stroke-linejoin="round" x1="45.656" y1="333.658" x2="38.119" y2="333.658"/>
	</g>
</g>
<g>
	<g>
		<g>
			<path d="M8.922,333.639l-0.834,1.373l0.047,0.031l2.238-0.889c0.779-0.172,1.561-0.344,2.342-0.516
				c-0.781-0.17-1.562-0.342-2.342-0.514l-2.238-0.891l-0.047,0.025L8.922,333.639z"/>
		</g>
		
			<line fill="none" stroke="#000000" stroke-width="0.4" stroke-linecap="round" stroke-linejoin="round" x1="1.838" y1="333.658" x2="9.391" y2="333.658"/>
	</g>
</g>
<line fill="none" stroke="#000000" stroke-width="0.3" stroke-linecap="round" stroke-linejoin="round" x1="259.274" y1="272.5" x2="259.274" y2="252.5"/>
<line fill="none" stroke="#000000" stroke-width="0.3" stroke-linecap="round" stroke-linejoin="round" x1="194.825" y1="272.5" x2="194.825" y2="243.875"/>
<g>
	<path d="M208.514,262.306c0-1.831,1.335-2.015,1.942-2.015c0.976,0,1.76,0.632,1.76,1.679c0,1.007-0.664,1.431-1.504,1.879
		l-0.583,0.32c-0.768,0.424-0.936,0.864-0.968,1.08h3.055v0.664h-3.847c0.04-1.167,0.568-1.791,1.319-2.231l0.744-0.432
		c0.6-0.344,1.031-0.576,1.031-1.311c0-0.448-0.288-1.016-1.111-1.016c-1.063,0-1.111,0.991-1.136,1.383H208.514z"/>
	<path d="M214.4,262.714c0.12,0.008,0.248,0.016,0.368,0.016c0.544,0,1.071-0.216,1.071-0.919c0-0.336-0.2-0.888-1.039-0.888
		c-1,0-1.063,0.815-1.096,1.208h-0.688c0-0.824,0.336-1.839,1.814-1.839c1.088,0,1.735,0.624,1.735,1.479
		c0,0.72-0.416,1.063-0.72,1.159v0.016c0.544,0.176,0.936,0.56,0.936,1.311c0,0.92-0.592,1.807-2.022,1.807
		c-0.416,0-0.768-0.104-1.04-0.248c-0.623-0.328-0.791-0.976-0.839-1.624h0.728c0.023,0.528,0.151,1.24,1.199,1.24
		c0.72,0,1.224-0.44,1.224-1.088c0-0.943-0.832-1.031-1.312-1.031c-0.104,0-0.216,0.008-0.32,0.008V262.714z"/>
	<path d="M217.698,259.44h3.159v0.5c-0.455,0.475-1.547,1.931-1.879,3.972h-0.63c0.155-1.254,0.987-2.893,1.865-3.913h-2.516V259.44
		z"/>
	<path d="M221.309,266.064h-0.535l1.967-6.044h0.527L221.309,266.064z"/>
	<path d="M225.746,263.481c0.618,0.26,0.748,0.767,0.748,1.112c0,0.734-0.469,1.443-1.548,1.443c-0.253,0-0.734-0.065-1.098-0.351
		c-0.469-0.371-0.469-0.864-0.469-1.085c0-0.559,0.293-0.917,0.773-1.112c-0.39-0.149-0.617-0.461-0.617-0.89
		c0-0.475,0.293-1.255,1.385-1.255c1.014,0,1.41,0.644,1.41,1.177C226.331,263.175,225.948,263.377,225.746,263.481z
		 M223.991,264.612c0,0.364,0.182,0.91,0.975,0.91c0.416,0,0.917-0.149,0.917-0.864c0-0.618-0.429-0.891-0.949-0.891
		C224.29,263.767,223.991,264.189,223.991,264.612z M225.74,262.539c0-0.28-0.183-0.683-0.852-0.683
		c-0.611,0-0.761,0.422-0.761,0.715c0,0.436,0.384,0.702,0.8,0.702C225.421,263.273,225.74,262.955,225.74,262.539z"/>
	<path d="M227.307,260.171h0.584v2.039h-0.584V260.171z M228.442,260.171h0.584v2.039h-0.584V260.171z"/>
	<path d="M232.948,261.147c-0.553,1.04-0.884,1.664-0.884,3.224c0,1.073,0.37,1.866,0.891,2.886h-0.384
		c-0.676-1.014-1.118-1.827-1.118-3.042c0-1.144,0.396-2.067,1.099-3.068H232.948z"/>
	<path d="M235.886,262.558c-0.071-0.403-0.292-0.702-0.786-0.702c-0.896,0-1.086,1.209-1.086,1.69l0.014,0.013
		c0.143-0.247,0.461-0.559,1.085-0.559c0.56,0,1.431,0.357,1.431,1.45c0,0.468-0.124,0.806-0.436,1.144
		c-0.24,0.267-0.514,0.442-1.157,0.442c-0.351,0-0.852-0.156-1.177-0.663c-0.272-0.429-0.351-0.988-0.351-1.586
		c0-1.001,0.325-2.444,1.689-2.444c0.527,0,1.274,0.286,1.333,1.216H235.886z M235.054,265.522c0.547,0,0.897-0.429,0.897-1.046
		c0-0.403-0.215-0.962-0.923-0.962c-0.631,0-0.937,0.455-0.937,0.994C234.092,264.996,234.385,265.522,235.054,265.522z"/>
	<path d="M238.597,266.036c-1.313,0-1.566-1.397-1.566-2.347c0-0.949,0.253-2.347,1.566-2.347s1.566,1.398,1.566,2.347
		C240.163,264.638,239.91,266.036,238.597,266.036z M238.597,261.856c-0.656,0-0.955,0.689-0.955,1.833s0.299,1.833,0.955,1.833
		s0.955-0.689,0.955-1.833S239.253,261.856,238.597,261.856z"/>
	<path d="M243.114,262.558c-0.071-0.403-0.293-0.702-0.786-0.702c-0.897,0-1.086,1.209-1.086,1.69l0.013,0.013
		c0.144-0.247,0.462-0.559,1.086-0.559c0.559,0,1.43,0.357,1.43,1.45c0,0.468-0.123,0.806-0.436,1.144
		c-0.24,0.267-0.514,0.442-1.157,0.442c-0.351,0-0.852-0.156-1.176-0.663c-0.273-0.429-0.352-0.988-0.352-1.586
		c0-1.001,0.325-2.444,1.69-2.444c0.526,0,1.273,0.286,1.332,1.216H243.114z M242.282,265.522c0.546,0,0.897-0.429,0.897-1.046
		c0-0.403-0.215-0.962-0.924-0.962c-0.63,0-0.936,0.455-0.936,0.994C241.32,264.996,241.612,265.522,242.282,265.522z"/>
	<path d="M244.245,267.258c0.553-1.04,0.884-1.664,0.884-3.224c0-1.073-0.37-1.866-0.891-2.886h0.384
		c0.676,1.014,1.118,1.827,1.118,3.042c0,1.144-0.396,2.067-1.099,3.068H244.245z"/>
</g>
<g>
	<g>
		<g>
			<path d="M254.792,263.439l-0.834,1.373l0.047,0.031l2.238-0.889c0.779-0.172,1.561-0.344,2.342-0.516
				c-0.781-0.17-1.562-0.342-2.342-0.514l-2.238-0.891l-0.047,0.025L254.792,263.439z"/>
		</g>
		
			<line fill="none" stroke="#000000" stroke-width="0.4" stroke-linecap="round" stroke-linejoin="round" x1="247.724" y1="263.458" x2="255.261" y2="263.458"/>
	</g>
</g>
<g>
	<g>
		<g>
			<path d="M199.386,263.439l0.834,1.373l-0.047,0.031l-2.238-0.889c-0.779-0.172-1.561-0.344-2.342-0.516
				c0.781-0.17,1.562-0.342,2.342-0.514l2.238-0.891l0.047,0.025L199.386,263.439z"/>
		</g>
		
			<line fill="none" stroke="#000000" stroke-width="0.4" stroke-linecap="round" stroke-linejoin="round" x1="206.47" y1="263.458" x2="198.917" y2="263.458"/>
	</g>
</g>
<g>
	<path d="M38.325,260.031h0.62v4.59h-0.62v-2.142h-2.397v2.142h-0.621v-4.59h0.621v1.899h2.397V260.031z"/>
	<path d="M43.374,264.621h-3.389v-4.59h3.344v0.55h-2.723v1.406h2.512v0.55h-2.512v1.535h2.768V264.621z"/>
	<path d="M44.906,264.621h-0.62v-4.59h0.62V264.621z"/>
	<path d="M47.97,262.166h2.014v2.455h-0.403l-0.147-0.595c-0.313,0.435-0.889,0.716-1.515,0.716c-0.786,0-1.17-0.288-1.406-0.518
		c-0.704-0.665-0.723-1.451-0.723-1.937c0-1.119,0.678-2.378,2.174-2.378c0.856,0,1.809,0.486,1.943,1.515h-0.601
		c-0.198-0.799-0.87-0.965-1.375-0.965c-0.825,0-1.502,0.659-1.502,1.86c0,0.934,0.307,1.893,1.528,1.893
		c0.23,0,0.601-0.025,0.94-0.294c0.403-0.32,0.505-0.729,0.505-1.221H47.97V262.166z"/>
	<path d="M53.972,260.031h0.62v4.59h-0.62v-2.142h-2.397v2.142h-0.62v-4.59h0.62v1.899h2.397V260.031z"/>
	<path d="M55.172,260.031H58.9v0.55h-1.554v4.041h-0.62v-4.041h-1.554V260.031z"/>
	<path d="M61.291,260.031h1.86c1.196,0,1.931,0.908,1.931,2.231c0,1.029-0.447,2.359-1.956,2.359h-1.835V260.031z M61.911,264.09
		h1.202c0.805,0,1.33-0.633,1.33-1.79s-0.531-1.739-1.375-1.739h-1.157V264.09z"/>
	<path d="M66.595,264.621h-0.62v-4.59h0.62V264.621z"/>
	<path d="M71.437,264.621v-2.711c0-0.134,0.013-0.716,0.013-1.145h-0.013l-1.292,3.855h-0.614l-1.292-3.849h-0.013
		c0,0.422,0.013,1.003,0.013,1.138v2.711h-0.601v-4.59h0.889l1.311,3.881h0.013l1.304-3.881h0.882v4.59H71.437z"/>
	<path d="M76.442,264.621h-3.389v-4.59h3.344v0.55h-2.724v1.406h2.512v0.55h-2.512v1.535h2.768V264.621z"/>
	<path d="M80.302,260.031h0.601v4.59h-0.697l-2.333-3.708h-0.013v3.708h-0.601v-4.59h0.735l2.295,3.708h0.013V260.031z"/>
	<path d="M84.647,261.373c-0.032-0.709-0.62-0.933-1.138-0.933c-0.39,0-1.048,0.108-1.048,0.805c0,0.39,0.275,0.518,0.543,0.582
		l1.311,0.3c0.595,0.141,1.042,0.499,1.042,1.228c0,1.087-1.01,1.388-1.796,1.388c-0.851,0-1.183-0.256-1.388-0.441
		c-0.39-0.352-0.466-0.735-0.466-1.164h0.582c0,0.831,0.678,1.074,1.266,1.074c0.447,0,1.202-0.115,1.202-0.773
		c0-0.479-0.224-0.633-0.978-0.812l-0.94-0.217c-0.3-0.07-0.978-0.282-0.978-1.081c0-0.716,0.467-1.419,1.579-1.419
		c1.605,0,1.765,0.959,1.79,1.464H84.647z"/>
	<path d="M86.864,264.621h-0.62v-4.59h0.62V264.621z"/>
	<path d="M89.928,264.743c-1.714,0-2.238-1.426-2.238-2.417c0-0.991,0.524-2.417,2.238-2.417c1.713,0,2.237,1.426,2.237,2.417
		C92.166,263.317,91.642,264.743,89.928,264.743z M89.928,260.459c-0.998,0-1.599,0.786-1.599,1.867s0.601,1.867,1.599,1.867
		c0.997,0,1.598-0.787,1.598-1.867S90.925,260.459,89.928,260.459z"/>
	<path d="M95.949,260.031h0.601v4.59h-0.697l-2.333-3.708h-0.013v3.708h-0.601v-4.59h0.735l2.295,3.708h0.013V260.031z"/>
	<path d="M100.295,261.373c-0.032-0.709-0.62-0.933-1.138-0.933c-0.39,0-1.049,0.108-1.049,0.805c0,0.39,0.275,0.518,0.543,0.582
		l1.311,0.3c0.594,0.141,1.042,0.499,1.042,1.228c0,1.087-1.01,1.388-1.797,1.388c-0.85,0-1.183-0.256-1.387-0.441
		c-0.39-0.352-0.467-0.735-0.467-1.164h0.582c0,0.831,0.678,1.074,1.266,1.074c0.448,0,1.202-0.115,1.202-0.773
		c0-0.479-0.224-0.633-0.978-0.812l-0.94-0.217c-0.301-0.07-0.978-0.282-0.978-1.081c0-0.716,0.466-1.419,1.579-1.419
		c1.604,0,1.765,0.959,1.79,1.464H100.295z"/>
	<path d="M104.726,261.386h0.467v1.029h1.381v0.466h-1.381v1.03h-0.467v-1.03h-1.387v-0.466h1.387V261.386z M103.338,264.154h3.235
		v0.467h-3.235V264.154z"/>
	<path d="M110.139,262.621h-0.611v-3.244h-1.066v-0.455c0.741-0.052,1.047-0.124,1.229-0.871h0.449V262.621z"/>
	<path d="M111.494,264.773h-0.536l1.967-6.044h0.527L111.494,264.773z"/>
	<path d="M113.604,261.689c0-1.488,1.085-1.638,1.58-1.638c0.793,0,1.43,0.514,1.43,1.365c0,0.819-0.54,1.164-1.222,1.527
		l-0.475,0.26c-0.624,0.344-0.76,0.702-0.787,0.877h2.483v0.54h-3.126c0.032-0.949,0.461-1.456,1.072-1.813l0.604-0.351
		c0.488-0.28,0.838-0.468,0.838-1.066c0-0.364-0.234-0.826-0.903-0.826c-0.865,0-0.903,0.806-0.923,1.125H113.604z"/>
	<path d="M117.492,258.88h0.584v2.039h-0.584V258.88z M118.627,258.88h0.584v2.039h-0.584V258.88z"/>
	<path d="M122.934,259.856c-0.553,1.04-0.884,1.664-0.884,3.224c0,1.073,0.37,1.866,0.89,2.886h-0.383
		c-0.676-1.014-1.118-1.827-1.118-3.042c0-1.144,0.396-2.067,1.099-3.068H122.934z"/>
	<path d="M125.169,264.621h-0.611v-3.244h-1.066v-0.455c0.741-0.052,1.046-0.124,1.229-0.871h0.448V264.621z"/>
	<path d="M127.906,262.021c0.097,0.006,0.201,0.013,0.299,0.013c0.442,0,0.871-0.176,0.871-0.748c0-0.273-0.163-0.722-0.845-0.722
		c-0.812,0-0.864,0.663-0.891,0.981h-0.559c0-0.669,0.273-1.495,1.476-1.495c0.884,0,1.411,0.507,1.411,1.203
		c0,0.585-0.338,0.865-0.585,0.942v0.013c0.442,0.143,0.761,0.455,0.761,1.066c0,0.748-0.481,1.469-1.645,1.469
		c-0.338,0-0.624-0.084-0.845-0.202c-0.507-0.267-0.644-0.793-0.683-1.319h0.592c0.02,0.429,0.124,1.007,0.975,1.007
		c0.585,0,0.995-0.357,0.995-0.884c0-0.767-0.676-0.839-1.066-0.839c-0.084,0-0.175,0.007-0.26,0.007V262.021z"/>
	<path d="M130.292,265.967c0.553-1.04,0.884-1.664,0.884-3.224c0-1.073-0.37-1.866-0.89-2.886h0.383
		c0.676,1.014,1.118,1.827,1.118,3.042c0,1.144-0.396,2.067-1.099,3.068H130.292z"/>
</g>
<g>
	<path fill="none" stroke="#000000" stroke-width="0.6" stroke-linecap="round" stroke-linejoin="round" d="M89.9,58.081
		c0-0.443-0.502-0.804-1.117-0.804l0,0c-0.618,0-1.119,0.361-1.119,0.804v117.392c0,0.445,0.5,0.805,1.119,0.805l0,0
		c0.614,0,1.117-0.359,1.117-0.805V58.081z"/>
</g>
<g>
	<path fill="none" stroke="#000000" stroke-width="0.6" stroke-linecap="round" stroke-linejoin="round" d="M77.328,58.081
		c0-0.443,0.502-0.804,1.117-0.804l0,0c0.618,0,1.119,0.361,1.119,0.804v117.392c0,0.445-0.5,0.805-1.119,0.805l0,0
		c-0.614,0-1.117-0.359-1.117-0.805V58.081z"/>
</g>
<g>
	
		<line fill="none" stroke="#000000" stroke-width="0.7" stroke-linecap="round" stroke-linejoin="round" x1="132.156" y1="50.356" x2="84.542" y2="50.356"/>
	
		<line fill="none" stroke="#000000" stroke-width="0.6" stroke-linecap="round" stroke-linejoin="round" x1="84.432" y1="50.312" x2="84.432" y2="183.091"/>
	
		<line fill="none" stroke="#000000" stroke-width="0.6" stroke-linecap="round" stroke-linejoin="round" x1="132.074" y1="183.091" x2="84.438" y2="183.091"/>
</g>
<g>
	
		<line fill="none" stroke="#000000" stroke-width="0.7" stroke-linecap="round" stroke-linejoin="round" x1="82.708" y1="50.356" x2="35.33" y2="50.356"/>
	
		<line fill="none" stroke="#000000" stroke-width="0.6" stroke-linecap="round" stroke-linejoin="round" x1="82.797" y1="50.354" x2="82.797" y2="183.083"/>
	
		<line fill="none" stroke="#000000" stroke-width="0.6" stroke-linecap="round" stroke-linejoin="round" x1="82.797" y1="183.091" x2="35.062" y2="183.091"/>
</g>
<g>
	<g>
		<g>
			<path fill="none" stroke="#999999" stroke-width="0.6" stroke-linecap="round" stroke-linejoin="round" d="M150.704,394.007
				c-0.3-0.824,0.125-1.729,0.943-2.027c0.819-0.297,1.726,0.123,2.027,0.947c0.296,0.818-0.127,1.725-0.948,2.021
				C151.908,395.247,151.002,394.825,150.704,394.007z"/>
			<polyline fill="none" stroke="#999999" stroke-width="0.5" stroke-linecap="round" stroke-linejoin="round" points="
				151.346,394.921 147.859,396.218 147.108,394.155 150.596,392.86 			"/>
		</g>
		<polyline fill="none" stroke="#999999" stroke-width="0.7" stroke-linecap="round" stroke-linejoin="round" points="
			132.45,368.455 144.331,400.612 148.829,398.976 132.828,355.492 		"/>
		
			<line fill="none" stroke="#999999" stroke-width="0.6" stroke-linecap="round" stroke-linejoin="round" x1="133.875" y1="396.625" x2="132.466" y2="393.113"/>
		
			<line fill="none" stroke="#999999" stroke-width="0.6" stroke-linecap="round" stroke-linejoin="round" x1="142.091" y1="398.304" x2="139" y2="398.688"/>
		<g>
			<path fill="none" stroke="#999999" stroke-width="0.5" stroke-linecap="round" stroke-linejoin="round" d="M132.652,367.309
				l1.963-0.715c0,0,0.415-0.064,0.237-0.553l-2.424-6.658"/>
		</g>
		<polyline fill="none" stroke="#999999" stroke-width="0.5" stroke-linecap="round" stroke-linejoin="round" points="
			144.01,400.364 143.286,400.628 132.521,371.533 		"/>
	</g>
	<g>
		<g>
			
				<circle fill="none" stroke="#000000" stroke-width="0.6" stroke-linecap="round" stroke-linejoin="round" cx="137.512" cy="397.888" r="1.579"/>
			<polyline fill="none" stroke="#000000" stroke-width="0.5" stroke-linecap="round" stroke-linejoin="round" points="
				136.26,398.991 132.502,398.991 132.502,396.798 136.26,396.798 			"/>
		</g>
		<g>
			<polyline fill="none" stroke="#000000" stroke-width="0.8" stroke-linecap="round" stroke-linejoin="round" points="
				127.685,354.447 127.685,401.913 132.472,401.913 132.472,355.877 			"/>
			<path fill="none" stroke="#000000" stroke-width="0.6" stroke-linecap="round" stroke-linejoin="round" d="M126.369,398.978
				l-6.117-1.336c0,0-0.987-0.162-0.987-1.62v-37.287c0,0-0.079-1.334,1.02-1.617l6.246-1.15"/>
			<g>
				<path fill="none" stroke="#000000" stroke-width="0.5" stroke-linecap="round" stroke-linejoin="round" d="M131.562,355.225
					c0.309,0,0.557-0.25,0.557-0.555c0-0.311-0.248-0.557-0.557-0.557c-0.308,0-0.557,0.246-0.557,0.557
					C131.005,354.975,131.254,355.225,131.562,355.225z"/>
				
					<line fill="none" stroke="#000000" stroke-width="0.48" stroke-linecap="round" stroke-linejoin="round" x1="127.909" y1="354.365" x2="127.909" y2="366.479"/>
				<path fill="none" stroke="#000000" stroke-width="0.5" stroke-linecap="round" stroke-linejoin="round" d="M127.909,366.479
					c0,0-0.001,0.441,0.357,0.441h2.087c0,0,0.412,0.082,0.412-0.441v-8.652c0.056-0.383,0.771-1.096,0.771-1.096l1.034-1.1
					c0.237-0.252,0.385-0.592,0.385-0.961"/>
			</g>
			<polyline fill="none" stroke="#000000" stroke-width="0.5" stroke-linecap="round" stroke-linejoin="round" points="
				127.468,401.571 126.699,401.571 126.699,354.395 			"/>
			<path fill="none" stroke="#000000" stroke-width="0.5" stroke-linecap="round" stroke-linejoin="round" d="M121.701,351.016
				c0.687,1.648,2.691,3.32,2.691,3.32h4.368c0.467,0,0.743,0.305,0.743,0.305l1.099,1.035c0.249,0.24,0.589,0.385,0.961,0.385
				c0.769,0,1.392-0.623,1.392-1.395v-2.141c0,0,0.009-0.66-0.842-0.66h-1.264c0,0-0.687-0.025-0.687-0.85H121.701"/>
		</g>
	</g>
	
		<line fill="none" stroke="#000000" stroke-width="0.6" stroke-linecap="round" stroke-linejoin="round" x1="123.721" y1="353.833" x2="123.721" y2="356.5"/>
	
		<line fill="none" stroke="#000000" stroke-width="0.5" stroke-linecap="round" stroke-linejoin="round" x1="120.475" y1="356.917" x2="120.475" y2="352.289"/>
</g>
<g>
	<g>
		<g>
			<path fill="none" stroke="#999999" stroke-width="0.6" stroke-linecap="round" stroke-linejoin="round" d="M16.38,394.007
				c0.3-0.824-0.125-1.729-0.943-2.027c-0.819-0.297-1.726,0.123-2.027,0.947c-0.296,0.818,0.127,1.725,0.948,2.021
				C15.176,395.247,16.082,394.825,16.38,394.007z"/>
			<polyline fill="none" stroke="#999999" stroke-width="0.5" stroke-linecap="round" stroke-linejoin="round" points="
				15.738,394.921 19.225,396.218 19.977,394.155 16.488,392.86 			"/>
		</g>
		<polyline fill="none" stroke="#999999" stroke-width="0.7" stroke-linecap="round" stroke-linejoin="round" points="
			34.635,368.455 22.754,400.612 18.255,398.976 34.257,355.492 		"/>
		
			<line fill="none" stroke="#999999" stroke-width="0.6" stroke-linecap="round" stroke-linejoin="round" x1="33.209" y1="396.625" x2="34.619" y2="393.113"/>
		
			<line fill="none" stroke="#999999" stroke-width="0.6" stroke-linecap="round" stroke-linejoin="round" x1="24.994" y1="398.304" x2="28.084" y2="398.688"/>
		<g>
			<path fill="none" stroke="#999999" stroke-width="0.5" stroke-linecap="round" stroke-linejoin="round" d="M34.433,367.309
				l-1.963-0.715c0,0-0.415-0.064-0.237-0.553l2.424-6.658"/>
		</g>
		<polyline fill="none" stroke="#999999" stroke-width="0.5" stroke-linecap="round" stroke-linejoin="round" points="
			23.075,400.364 23.798,400.628 34.563,371.533 		"/>
	</g>
	<g>
		<g>
			
				<circle fill="none" stroke="#000000" stroke-width="0.6" stroke-linecap="round" stroke-linejoin="round" cx="29.573" cy="397.888" r="1.579"/>
			<polyline fill="none" stroke="#000000" stroke-width="0.5" stroke-linecap="round" stroke-linejoin="round" points="
				30.824,398.991 34.582,398.991 34.582,396.798 30.824,396.798 			"/>
		</g>
		<g>
			<polyline fill="none" stroke="#000000" stroke-width="0.8" stroke-linecap="round" stroke-linejoin="round" points="
				39.4,354.447 39.4,401.913 34.613,401.913 34.613,355.877 			"/>
			<path fill="none" stroke="#000000" stroke-width="0.6" stroke-linecap="round" stroke-linejoin="round" d="M40.715,398.978
				l6.117-1.336c0,0,0.987-0.162,0.987-1.62v-37.287c0,0,0.079-1.334-1.02-1.617l-6.246-1.15"/>
			<g>
				<path fill="none" stroke="#000000" stroke-width="0.5" stroke-linecap="round" stroke-linejoin="round" d="M35.522,355.225
					c-0.309,0-0.557-0.25-0.557-0.555c0-0.311,0.248-0.557,0.557-0.557c0.308,0,0.557,0.246,0.557,0.557
					C36.079,354.975,35.83,355.225,35.522,355.225z"/>
				
					<line fill="none" stroke="#000000" stroke-width="0.48" stroke-linecap="round" stroke-linejoin="round" x1="39.176" y1="354.365" x2="39.176" y2="366.479"/>
				<path fill="none" stroke="#000000" stroke-width="0.5" stroke-linecap="round" stroke-linejoin="round" d="M39.176,366.479
					c0,0,0.001,0.441-0.357,0.441h-2.087c0,0-0.412,0.082-0.412-0.441v-8.652c-0.056-0.383-0.771-1.096-0.771-1.096l-1.034-1.1
					c-0.237-0.252-0.385-0.592-0.385-0.961"/>
			</g>
			<polyline fill="none" stroke="#000000" stroke-width="0.5" stroke-linecap="round" stroke-linejoin="round" points="
				39.617,401.571 40.386,401.571 40.386,354.395 			"/>
			<path fill="none" stroke="#000000" stroke-width="0.5" stroke-linecap="round" stroke-linejoin="round" d="M45.384,351.016
				c-0.687,1.648-2.691,3.32-2.691,3.32h-4.368c-0.467,0-0.743,0.305-0.743,0.305l-1.099,1.035c-0.249,0.24-0.589,0.385-0.961,0.385
				c-0.769,0-1.392-0.623-1.392-1.395v-2.141c0,0-0.009-0.66,0.842-0.66h1.264c0,0,0.687-0.025,0.687-0.85H45.384"/>
		</g>
	</g>
	
		<line fill="none" stroke="#000000" stroke-width="0.6" stroke-linecap="round" stroke-linejoin="round" x1="43.363" y1="353.833" x2="43.363" y2="356.5"/>
	
		<line fill="none" stroke="#000000" stroke-width="0.5" stroke-linecap="round" stroke-linejoin="round" x1="46.609" y1="356.917" x2="46.609" y2="352.289"/>
</g>
<g>
	<g>
		<polyline fill="none" stroke="#000000" stroke-width="0.7" stroke-linecap="round" stroke-linejoin="round" points="36.019,402 
			36.019,403.243 131.062,403.243 131.062,401.969 		"/>
		
			<line fill="none" stroke="#000000" stroke-width="0.7" stroke-linecap="round" stroke-linejoin="round" x1="123.781" y1="398.454" x2="43.312" y2="398.454"/>
		
			<line fill="none" stroke="#000000" stroke-width="0.6" stroke-linecap="round" stroke-linejoin="round" x1="47.844" y1="390.034" x2="119.097" y2="390.034"/>
		
			<line fill="none" stroke="#000000" stroke-width="0.5" stroke-linecap="round" stroke-linejoin="round" x1="47.312" y1="397.47" x2="119.812" y2="397.47"/>
	</g>
</g>
<g>
	<path fill="none" stroke="#000000" stroke-width="0.6" stroke-linecap="round" stroke-linejoin="round" d="M127.785,406.272H39.3
		c-0.79,0-1.128,0.643-1.128,1.434c0,0.789,0.338,1.434,1.128,1.434h88.375"/>
	<polyline fill="none" stroke="#000000" stroke-width="0.5" stroke-linecap="round" stroke-linejoin="round" points="
		45.951,406.317 45.951,403.272 51.936,403.272 51.936,406.263 	"/>
	<polyline fill="none" stroke="#000000" stroke-width="0.5" stroke-linecap="round" stroke-linejoin="round" points="
		115.138,406.317 115.138,403.272 121.124,403.272 121.124,406.263 	"/>
	<path fill="none" stroke="#000000" stroke-width="0.6" stroke-linecap="round" stroke-linejoin="round" d="M127.785,406.272
		c0.79,0,1.128,0.643,1.128,1.434c0,0.789-0.338,1.434-1.128,1.434"/>
</g>
<line fill="none" stroke="#000000" stroke-width="0.3" stroke-linecap="round" stroke-linejoin="round" x1="27.966" y1="403.042" x2="27.966" y2="431.958"/>
<line fill="none" stroke="#000000" stroke-width="0.3" stroke-linecap="round" stroke-linejoin="round" x1="34.529" y1="406.209" x2="34.529" y2="431.958"/>
<g>
	<g>
		<g>
			<path d="M23.007,421.192l-0.834,1.373l0.047,0.031l2.238-0.889c0.779-0.172,1.561-0.344,2.342-0.516
				c-0.781-0.17-1.562-0.342-2.342-0.514l-2.238-0.891l-0.047,0.025L23.007,421.192z"/>
		</g>
		
			<line fill="none" stroke="#000000" stroke-width="0.4" stroke-linecap="round" stroke-linejoin="round" x1="15.939" y1="421.212" x2="23.476" y2="421.212"/>
	</g>
</g>
<g>
	<g>
		<g>
			<path d="M39.458,421.192l0.834,1.373l-0.047,0.031l-2.238-0.889c-0.779-0.172-1.561-0.344-2.342-0.516
				c0.781-0.17,1.562-0.342,2.342-0.514l2.238-0.891l0.047,0.025L39.458,421.192z"/>
		</g>
		
			<line fill="none" stroke="#000000" stroke-width="0.4" stroke-linecap="round" stroke-linejoin="round" x1="46.542" y1="421.212" x2="38.99" y2="421.212"/>
	</g>
</g>
<g>
	<path d="M49.377,419.827c0-1.831,1.335-2.015,1.943-2.015c0.976,0,1.759,0.632,1.759,1.68c0,1.007-0.664,1.431-1.503,1.879
		l-0.583,0.319c-0.768,0.424-0.936,0.863-0.968,1.079h3.054v0.664h-3.846c0.04-1.167,0.568-1.791,1.319-2.23l0.744-0.432
		c0.6-0.344,1.031-0.576,1.031-1.312c0-0.448-0.288-1.016-1.111-1.016c-1.063,0-1.111,0.991-1.135,1.383H49.377z"/>
	<path d="M55.329,418.834c0.098,0.006,0.202,0.013,0.299,0.013c0.442,0,0.871-0.176,0.871-0.748c0-0.272-0.163-0.722-0.845-0.722
		c-0.812,0-0.865,0.663-0.891,0.982h-0.559c0-0.67,0.273-1.495,1.476-1.495c0.884,0,1.411,0.507,1.411,1.202
		c0,0.585-0.338,0.864-0.585,0.942v0.014c0.442,0.143,0.76,0.454,0.76,1.065c0,0.748-0.481,1.469-1.645,1.469
		c-0.338,0-0.624-0.084-0.845-0.201c-0.507-0.267-0.644-0.793-0.682-1.319h0.591c0.02,0.429,0.124,1.008,0.975,1.008
		c0.585,0,0.995-0.357,0.995-0.885c0-0.767-0.676-0.838-1.066-0.838c-0.084,0-0.175,0.006-0.26,0.006V418.834z"/>
	<path d="M57.887,423.586h-0.536l1.967-6.045h0.528L57.887,423.586z"/>
	<path d="M62.324,421.003c0.617,0.26,0.748,0.767,0.748,1.111c0,0.734-0.468,1.442-1.547,1.442c-0.253,0-0.734-0.064-1.098-0.351
		c-0.468-0.37-0.468-0.864-0.468-1.086c0-0.559,0.292-0.916,0.773-1.111c-0.39-0.149-0.617-0.461-0.617-0.891
		c0-0.475,0.292-1.254,1.384-1.254c1.014,0,1.411,0.644,1.411,1.176C62.909,420.697,62.525,420.898,62.324,421.003z M60.569,422.134
		c0,0.364,0.182,0.91,0.975,0.91c0.416,0,0.917-0.149,0.917-0.865c0-0.617-0.429-0.891-0.949-0.891
		C60.868,421.288,60.569,421.711,60.569,422.134z M62.317,420.06c0-0.279-0.182-0.683-0.851-0.683c-0.611,0-0.761,0.423-0.761,0.716
		c0,0.436,0.383,0.702,0.799,0.702C61.999,420.795,62.317,420.476,62.317,420.06z"/>
	<path d="M63.885,417.692h0.583v2.039h-0.583V417.692z M65.02,417.692h0.584v2.039H65.02V417.692z"/>
	<path d="M69.526,418.669c-0.552,1.04-0.884,1.664-0.884,3.224c0,1.073,0.371,1.866,0.891,2.887h-0.384
		c-0.676-1.015-1.118-1.827-1.118-3.042c0-1.145,0.397-2.067,1.099-3.068H69.526z"/>
	<path d="M72.464,420.079c-0.071-0.402-0.292-0.702-0.786-0.702c-0.897,0-1.086,1.21-1.086,1.69l0.013,0.013
		c0.143-0.246,0.461-0.559,1.085-0.559c0.559,0,1.43,0.357,1.43,1.449c0,0.469-0.124,0.807-0.436,1.145
		c-0.241,0.267-0.514,0.441-1.157,0.441c-0.351,0-0.852-0.155-1.176-0.662c-0.273-0.43-0.351-0.988-0.351-1.587
		c0-1.001,0.325-2.443,1.69-2.443c0.526,0,1.274,0.286,1.333,1.215H72.464z M71.632,423.044c0.546,0,0.897-0.43,0.897-1.047
		c0-0.403-0.214-0.962-0.923-0.962c-0.63,0-0.936,0.455-0.936,0.994C70.67,422.517,70.962,423.044,71.632,423.044z"/>
	<path d="M75.174,423.557c-1.313,0-1.566-1.397-1.566-2.346c0-0.949,0.253-2.347,1.566-2.347s1.567,1.397,1.567,2.347
		C76.741,422.159,76.487,423.557,75.174,423.557z M75.174,419.377c-0.656,0-0.956,0.689-0.956,1.834
		c0,1.144,0.299,1.833,0.956,1.833c0.657,0,0.956-0.689,0.956-1.833C76.13,420.066,75.831,419.377,75.174,419.377z"/>
	<path d="M77.209,424.779c0.552-1.04,0.884-1.664,0.884-3.225c0-1.072-0.37-1.865-0.89-2.886h0.383
		c0.676,1.014,1.118,1.826,1.118,3.042c0,1.145-0.396,2.067-1.099,3.068H77.209z"/>
</g>
<g>
	<g>
		<path fill="none" stroke="#000000" stroke-width="0.5" d="M116.492,57.625c0,0.435-0.103,0.824-0.25,1.126
			c1.296-0.174,3.633-0.194,5.155-0.194c1.521,0,3.858,0.021,5.154,0.194c-0.147-0.302-0.249-0.691-0.249-1.126
			c0-0.432,0.102-0.823,0.249-1.123c-1.296,0.173-3.634,0.194-5.154,0.194c-1.522,0-3.859-0.021-5.155-0.194
			C116.389,56.802,116.492,57.193,116.492,57.625z"/>
	</g>
</g>
<g>
	
		<line fill="none" stroke="#000000" stroke-width="0.3" stroke-linecap="round" stroke-linejoin="round" x1="259.483" y1="47.375" x2="259.483" y2="1.5"/>
	
		<line fill="none" stroke="#000000" stroke-width="0.3" stroke-linecap="round" stroke-linejoin="round" x1="188.751" y1="20.375" x2="188.751" y2="1.5"/>
	<g>
		<path d="M204.15,8.556c0-1.831,1.335-2.015,1.943-2.015c0.976,0,1.759,0.632,1.759,1.679c0,1.007-0.663,1.431-1.503,1.879
			l-0.584,0.32c-0.768,0.424-0.935,0.864-0.967,1.08h3.054v0.664h-3.846c0.04-1.167,0.568-1.791,1.319-2.231l0.744-0.432
			c0.6-0.344,1.032-0.576,1.032-1.311c0-0.448-0.288-1.016-1.112-1.016c-1.063,0-1.111,0.991-1.135,1.383H204.15z"/>
		<path d="M211.58,8.036c-0.088-0.496-0.359-0.863-0.968-0.863c-1.104,0-1.335,1.487-1.335,2.079l0.016,0.016
			c0.177-0.304,0.568-0.688,1.336-0.688c0.688,0,1.759,0.44,1.759,1.783c0,0.576-0.152,0.991-0.536,1.407
			c-0.296,0.328-0.631,0.543-1.423,0.543c-0.432,0-1.048-0.192-1.447-0.815c-0.336-0.528-0.432-1.215-0.432-1.951
			c0-1.231,0.399-3.006,2.079-3.006c0.647,0,1.566,0.352,1.639,1.495H211.58z M210.557,11.683c0.672,0,1.104-0.528,1.104-1.288
			c0-0.496-0.264-1.183-1.136-1.183c-0.775,0-1.151,0.56-1.151,1.223C209.373,11.035,209.733,11.683,210.557,11.683z"/>
		<path d="M214.55,7.562c0.098,0.006,0.202,0.013,0.299,0.013c0.442,0,0.871-0.176,0.871-0.748c0-0.273-0.162-0.722-0.845-0.722
			c-0.812,0-0.864,0.663-0.891,0.981h-0.559c0-0.669,0.272-1.495,1.476-1.495c0.884,0,1.41,0.507,1.41,1.203
			c0,0.585-0.338,0.865-0.585,0.942V7.75c0.442,0.143,0.761,0.455,0.761,1.066c0,0.748-0.481,1.469-1.645,1.469
			c-0.338,0-0.624-0.084-0.846-0.202c-0.507-0.267-0.644-0.793-0.682-1.319h0.591c0.02,0.429,0.124,1.007,0.976,1.007
			c0.585,0,0.994-0.357,0.994-0.884c0-0.767-0.676-0.839-1.066-0.839c-0.084,0-0.175,0.007-0.26,0.007V7.562z"/>
		<path d="M217.107,12.314h-0.535l1.967-6.044h0.527L217.107,12.314z"/>
		<path d="M220.865,12.162h-0.61V8.918h-1.066V8.463c0.741-0.052,1.047-0.124,1.229-0.871h0.448V12.162z"/>
		<path d="M224.792,8.808c-0.072-0.403-0.293-0.702-0.787-0.702c-0.896,0-1.085,1.209-1.085,1.69l0.013,0.013
			c0.143-0.247,0.461-0.559,1.085-0.559c0.56,0,1.431,0.357,1.431,1.45c0,0.468-0.124,0.806-0.436,1.144
			c-0.24,0.267-0.514,0.442-1.157,0.442c-0.351,0-0.852-0.156-1.177-0.663c-0.272-0.429-0.351-0.988-0.351-1.586
			c0-1.001,0.325-2.444,1.689-2.444c0.527,0,1.274,0.286,1.333,1.216H224.792z M223.96,11.772c0.546,0,0.896-0.429,0.896-1.046
			c0-0.403-0.215-0.962-0.923-0.962c-0.631,0-0.937,0.455-0.937,0.994C222.997,11.246,223.29,11.772,223.96,11.772z"/>
		<path d="M226.255,6.421h0.583V8.46h-0.583V6.421z M227.39,6.421h0.584V8.46h-0.584V6.421z"/>
		<path d="M231.896,7.397c-0.552,1.04-0.884,1.664-0.884,3.224c0,1.073,0.371,1.866,0.891,2.886h-0.384
			c-0.676-1.014-1.117-1.827-1.117-3.042c0-1.144,0.396-2.067,1.098-3.068H231.896z"/>
		<path d="M234.834,8.808c-0.071-0.403-0.293-0.702-0.786-0.702c-0.897,0-1.086,1.209-1.086,1.69l0.013,0.013
			c0.144-0.247,0.462-0.559,1.086-0.559c0.559,0,1.43,0.357,1.43,1.45c0,0.468-0.123,0.806-0.436,1.144
			c-0.24,0.267-0.514,0.442-1.157,0.442c-0.351,0-0.852-0.156-1.176-0.663c-0.273-0.429-0.352-0.988-0.352-1.586
			c0-1.001,0.325-2.444,1.69-2.444c0.526,0,1.273,0.286,1.332,1.216H234.834z M234.002,11.772c0.546,0,0.897-0.429,0.897-1.046
			c0-0.403-0.215-0.962-0.924-0.962c-0.63,0-0.936,0.455-0.936,0.994C233.04,11.246,233.332,11.772,234.002,11.772z"/>
		<path d="M238.448,8.808c-0.072-0.403-0.293-0.702-0.787-0.702c-0.896,0-1.085,1.209-1.085,1.69l0.013,0.013
			c0.143-0.247,0.462-0.559,1.086-0.559c0.559,0,1.43,0.357,1.43,1.45c0,0.468-0.123,0.806-0.436,1.144
			c-0.24,0.267-0.514,0.442-1.157,0.442c-0.351,0-0.852-0.156-1.177-0.663c-0.272-0.429-0.351-0.988-0.351-1.586
			c0-1.001,0.325-2.444,1.69-2.444c0.526,0,1.273,0.286,1.332,1.216H238.448z M237.616,11.772c0.546,0,0.896-0.429,0.896-1.046
			c0-0.403-0.214-0.962-0.923-0.962c-0.631,0-0.936,0.455-0.936,0.994C236.654,11.246,236.946,11.772,237.616,11.772z"/>
		<path d="M240.307,9.503c0.195-0.149,0.475-0.286,0.884-0.286c0.741,0,1.502,0.52,1.502,1.463c0,0.507-0.228,1.605-1.657,1.605
			c-0.599,0-1.365-0.241-1.476-1.261h0.591c0.059,0.533,0.455,0.767,0.969,0.767c0.592,0,0.962-0.475,0.962-1.046
			c0-0.657-0.448-1.014-1.014-1.014c-0.331,0-0.631,0.156-0.845,0.436l-0.494-0.026l0.345-2.451h2.365v0.559h-1.937L240.307,9.503z"
			/>
		<path d="M243.192,13.508c0.553-1.04,0.885-1.664,0.885-3.224c0-1.073-0.371-1.866-0.891-2.886h0.384
			c0.676,1.014,1.117,1.827,1.117,3.042c0,1.144-0.396,2.067-1.098,3.068H243.192z"/>
	</g>
	<g>
		<g>
			<g>
				<path d="M193.312,9.689l0.834,1.373l-0.047,0.031l-2.238-0.889c-0.779-0.172-1.561-0.344-2.342-0.516
					c0.781-0.17,1.562-0.342,2.342-0.514l2.238-0.891l0.047,0.025L193.312,9.689z"/>
			</g>
			
				<line fill="none" stroke="#000000" stroke-width="0.4" stroke-linecap="round" stroke-linejoin="round" x1="200.75" y1="9.708" x2="192.843" y2="9.708"/>
		</g>
	</g>
	<g>
		<g>
			<g>
				<path d="M255.049,9.689l-0.834,1.373l0.047,0.031l2.238-0.889c0.779-0.172,1.561-0.344,2.342-0.516
					c-0.781-0.17-1.562-0.342-2.342-0.514l-2.238-0.891l-0.047,0.025L255.049,9.689z"/>
			</g>
			
				<line fill="none" stroke="#000000" stroke-width="0.4" stroke-linecap="round" stroke-linejoin="round" x1="247.611" y1="9.708" x2="255.518" y2="9.708"/>
		</g>
	</g>
</g>
</svg>
